<svg width="824" height="362" viewBox="0 0 824 362" fill="none" xmlns="http://www.w3.org/2000/svg">
<g filter="url(#filter0_ddd_4064_3343)">
<path d="M12 17.1518C12 8.31529 19.1634 1.15186 28 1.15186H796C804.837 1.15186 812 8.3153 812 17.1519V309.152C812 317.988 804.837 325.152 796 325.152H28C19.1634 325.152 12 317.988 12 309.152V17.1518Z" fill="#FDFDFD"/>
<path d="M363.103 53.9685C363.47 53.2253 364.53 53.2253 364.897 53.9685L366.549 57.3149C366.694 57.6098 366.975 57.8143 367.301 57.8618L370.996 58.402C371.816 58.5218 372.143 59.5297 371.549 60.1078L368.877 62.7109C368.641 62.9406 368.533 63.2717 368.589 63.5963L369.219 67.2725C369.36 68.0894 368.502 68.7124 367.768 68.3266L364.465 66.5896C364.174 66.4364 363.826 66.4364 363.535 66.5896L360.232 68.3266C359.498 68.7124 358.64 68.0894 358.781 67.2725L359.411 63.5963C359.467 63.2717 359.359 62.9406 359.123 62.7109L356.451 60.1078C355.857 59.5297 356.184 58.5218 357.004 58.402L360.699 57.8618C361.025 57.8143 361.306 57.6098 361.451 57.3149L363.103 53.9685Z" fill="#F7AD30"/>
<path d="M387.103 53.9685C387.47 53.2253 388.53 53.2253 388.897 53.9685L390.549 57.3149C390.694 57.6098 390.975 57.8143 391.301 57.8618L394.996 58.402C395.816 58.5218 396.143 59.5297 395.549 60.1078L392.877 62.7109C392.641 62.9406 392.533 63.2717 392.589 63.5963L393.219 67.2725C393.36 68.0894 392.502 68.7124 391.768 68.3266L388.465 66.5896C388.174 66.4364 387.826 66.4364 387.535 66.5896L384.232 68.3266C383.498 68.7124 382.64 68.0894 382.781 67.2725L383.411 63.5963C383.467 63.2717 383.359 62.9406 383.123 62.7109L380.451 60.1078C379.857 59.5297 380.184 58.5218 381.004 58.402L384.699 57.8618C385.025 57.8143 385.306 57.6098 385.451 57.3149L387.103 53.9685Z" fill="#F7AD30"/>
<path d="M411.103 53.9685C411.47 53.2253 412.53 53.2253 412.897 53.9685L414.549 57.3149C414.694 57.6098 414.975 57.8143 415.301 57.8618L418.996 58.402C419.816 58.5218 420.143 59.5297 419.549 60.1078L416.877 62.7109C416.641 62.9406 416.533 63.2717 416.589 63.5963L417.219 67.2725C417.36 68.0894 416.502 68.7124 415.768 68.3266L412.465 66.5896C412.174 66.4364 411.826 66.4364 411.535 66.5896L408.232 68.3266C407.498 68.7124 406.64 68.0894 406.781 67.2725L407.411 63.5963C407.467 63.2717 407.359 62.9406 407.123 62.7109L404.451 60.1078C403.857 59.5297 404.184 58.5218 405.004 58.402L408.699 57.8618C409.025 57.8143 409.306 57.6098 409.451 57.3149L411.103 53.9685Z" fill="#F7AD30"/>
<path d="M435.103 53.9685C435.47 53.2253 436.53 53.2253 436.897 53.9685L438.549 57.3149C438.694 57.6098 438.975 57.8143 439.301 57.8618L442.996 58.402C443.816 58.5218 444.143 59.5297 443.549 60.1078L440.877 62.7109C440.641 62.9406 440.533 63.2717 440.589 63.5963L441.219 67.2725C441.36 68.0894 440.502 68.7124 439.768 68.3266L436.465 66.5896C436.174 66.4364 435.826 66.4364 435.535 66.5896L432.232 68.3266C431.498 68.7124 430.64 68.0894 430.781 67.2725L431.411 63.5963C431.467 63.2717 431.359 62.9406 431.123 62.7109L428.451 60.1078C427.857 59.5297 428.184 58.5218 429.004 58.402L432.699 57.8618C433.025 57.8143 433.306 57.6098 433.451 57.3149L435.103 53.9685Z" fill="#F7AD30"/>
<path d="M459.103 53.9685C459.47 53.2253 460.53 53.2253 460.897 53.9685L462.549 57.3149C462.694 57.6098 462.975 57.8143 463.301 57.8618L466.996 58.402C467.816 58.5218 468.143 59.5297 467.549 60.1078L464.877 62.7109C464.641 62.9406 464.533 63.2717 464.589 63.5963L465.219 67.2725C465.36 68.0894 464.502 68.7124 463.768 68.3266L460.465 66.5896C460.174 66.4364 459.826 66.4364 459.535 66.5896L456.232 68.3266C455.498 68.7124 454.64 68.0894 454.781 67.2725L455.411 63.5963C455.467 63.2717 455.359 62.9406 455.123 62.7109L452.451 60.1078C451.857 59.5297 452.184 58.5218 453.004 58.402L456.699 57.8618C457.025 57.8143 457.306 57.6098 457.451 57.3149L459.103 53.9685Z" fill="#F7AD30"/>
<path d="M127.4 112.652V110.261C127.4 109.574 127.529 108.859 127.787 108.117C128.053 107.367 128.412 106.66 128.865 105.996C129.326 105.324 129.842 104.757 130.412 104.296L132.381 105.574C131.92 106.269 131.533 106.996 131.221 107.753C130.916 108.503 130.767 109.332 130.775 110.238V112.652H127.4ZM133.342 112.652V110.261C133.342 109.574 133.471 108.859 133.728 108.117C133.994 107.367 134.353 106.66 134.806 105.996C135.267 105.324 135.783 104.757 136.353 104.296L138.322 105.574C137.861 106.269 137.474 106.996 137.162 107.753C136.857 108.503 136.709 109.332 136.717 110.238V112.652H133.342ZM145.18 105.152V129.152H140.832V105.152H145.18ZM160.808 105.152V129.152H156.566V105.152H160.808ZM172.362 129.503C170.604 129.503 169.081 129.117 167.791 128.343C166.502 127.57 165.502 126.488 164.791 125.097C164.088 123.707 163.737 122.082 163.737 120.222C163.737 118.363 164.088 116.734 164.791 115.335C165.502 113.937 166.502 112.851 167.791 112.078C169.081 111.304 170.604 110.917 172.362 110.917C174.12 110.917 175.643 111.304 176.932 112.078C178.221 112.851 179.217 113.937 179.92 115.335C180.631 116.734 180.987 118.363 180.987 120.222C180.987 122.082 180.631 123.707 179.92 125.097C179.217 126.488 178.221 127.57 176.932 128.343C175.643 129.117 174.12 129.503 172.362 129.503ZM172.385 126.105C173.338 126.105 174.135 125.843 174.776 125.32C175.416 124.789 175.893 124.078 176.206 123.187C176.526 122.296 176.686 121.304 176.686 120.21C176.686 119.109 176.526 118.113 176.206 117.222C175.893 116.324 175.416 115.609 174.776 115.078C174.135 114.546 173.338 114.281 172.385 114.281C171.409 114.281 170.596 114.546 169.948 115.078C169.307 115.609 168.827 116.324 168.506 117.222C168.194 118.113 168.038 119.109 168.038 120.21C168.038 121.304 168.194 122.296 168.506 123.187C168.827 124.078 169.307 124.789 169.948 125.32C170.596 125.843 171.409 126.105 172.385 126.105ZM199.393 111.152L192.983 129.152H188.296L181.885 111.152H186.409L190.546 124.523H190.733L194.881 111.152H199.393ZM209.025 129.503C207.22 129.503 205.662 129.128 204.349 128.378C203.045 127.621 202.041 126.55 201.338 125.167C200.635 123.777 200.283 122.14 200.283 120.257C200.283 118.406 200.635 116.781 201.338 115.382C202.049 113.976 203.041 112.882 204.314 112.101C205.588 111.312 207.084 110.917 208.803 110.917C209.912 110.917 210.959 111.097 211.943 111.457C212.935 111.808 213.81 112.355 214.568 113.097C215.334 113.839 215.935 114.785 216.373 115.933C216.81 117.074 217.029 118.433 217.029 120.011V121.312H202.275V118.453H212.963C212.955 117.64 212.779 116.917 212.435 116.285C212.092 115.644 211.611 115.14 210.994 114.773C210.385 114.406 209.674 114.222 208.861 114.222C207.994 114.222 207.232 114.433 206.576 114.855C205.92 115.269 205.408 115.816 205.041 116.496C204.681 117.167 204.498 117.906 204.49 118.71V121.207C204.49 122.253 204.681 123.152 205.064 123.902C205.447 124.644 205.982 125.214 206.67 125.613C207.357 126.003 208.162 126.199 209.084 126.199C209.701 126.199 210.26 126.113 210.76 125.941C211.26 125.761 211.693 125.5 212.06 125.156C212.428 124.812 212.705 124.386 212.892 123.878L216.853 124.324C216.603 125.371 216.127 126.285 215.424 127.066C214.728 127.839 213.838 128.441 212.752 128.871C211.666 129.292 210.424 129.503 209.025 129.503ZM236.472 111.152V114.433H226.124V111.152H236.472ZM228.679 106.839H232.921V123.738C232.921 124.308 233.007 124.746 233.179 125.05C233.358 125.347 233.593 125.55 233.882 125.66C234.171 125.769 234.491 125.824 234.843 125.824C235.108 125.824 235.351 125.804 235.569 125.765C235.796 125.726 235.968 125.691 236.085 125.66L236.8 128.976C236.573 129.054 236.249 129.14 235.827 129.234C235.413 129.328 234.905 129.382 234.304 129.398C233.241 129.429 232.284 129.269 231.433 128.917C230.581 128.558 229.905 128.003 229.405 127.253C228.913 126.503 228.671 125.566 228.679 124.441V106.839ZM243.989 118.605V129.152H239.746V105.152H243.895V114.21H244.106C244.528 113.195 245.18 112.394 246.063 111.808C246.953 111.214 248.086 110.917 249.461 110.917C250.711 110.917 251.801 111.179 252.731 111.703C253.66 112.226 254.379 112.992 254.887 114C255.403 115.007 255.66 116.238 255.66 117.691V129.152H251.418V118.347C251.418 117.136 251.106 116.195 250.481 115.523C249.864 114.843 248.996 114.503 247.879 114.503C247.129 114.503 246.457 114.667 245.864 114.996C245.278 115.316 244.817 115.781 244.481 116.39C244.153 117 243.989 117.738 243.989 118.605ZM267.293 129.503C265.489 129.503 263.93 129.128 262.618 128.378C261.313 127.621 260.309 126.55 259.606 125.167C258.903 123.777 258.551 122.14 258.551 120.257C258.551 118.406 258.903 116.781 259.606 115.382C260.317 113.976 261.309 112.882 262.582 112.101C263.856 111.312 265.352 110.917 267.071 110.917C268.18 110.917 269.227 111.097 270.211 111.457C271.204 111.808 272.079 112.355 272.836 113.097C273.602 113.839 274.204 114.785 274.641 115.933C275.079 117.074 275.297 118.433 275.297 120.011V121.312H260.543V118.453H271.231C271.223 117.64 271.047 116.917 270.704 116.285C270.36 115.644 269.879 115.14 269.262 114.773C268.653 114.406 267.942 114.222 267.129 114.222C266.262 114.222 265.5 114.433 264.844 114.855C264.188 115.269 263.676 115.816 263.309 116.496C262.95 117.167 262.766 117.906 262.758 118.71V121.207C262.758 122.253 262.95 123.152 263.332 123.902C263.715 124.644 264.25 125.214 264.938 125.613C265.625 126.003 266.43 126.199 267.352 126.199C267.969 126.199 268.528 126.113 269.028 125.941C269.528 125.761 269.961 125.5 270.329 125.156C270.696 124.812 270.973 124.386 271.161 123.878L275.121 124.324C274.871 125.371 274.395 126.285 273.692 127.066C272.996 127.839 272.106 128.441 271.02 128.871C269.934 129.292 268.692 129.503 267.293 129.503ZM294.74 111.152V114.433H284.392V111.152H294.74ZM286.947 106.839H291.189V123.738C291.189 124.308 291.275 124.746 291.447 125.05C291.627 125.347 291.861 125.55 292.15 125.66C292.439 125.769 292.76 125.824 293.111 125.824C293.377 125.824 293.619 125.804 293.838 125.765C294.064 125.726 294.236 125.691 294.353 125.66L295.068 128.976C294.842 129.054 294.517 129.14 294.095 129.234C293.681 129.328 293.174 129.382 292.572 129.398C291.51 129.429 290.552 129.269 289.701 128.917C288.849 128.558 288.174 128.003 287.674 127.253C287.181 126.503 286.939 125.566 286.947 124.441V106.839ZM297.628 129.152V111.152H301.741V114.152H301.929C302.257 113.113 302.819 112.312 303.616 111.75C304.421 111.179 305.339 110.894 306.37 110.894C306.604 110.894 306.866 110.906 307.155 110.929C307.452 110.945 307.698 110.972 307.893 111.011V114.914C307.714 114.851 307.429 114.796 307.038 114.75C306.655 114.695 306.284 114.667 305.925 114.667C305.151 114.667 304.456 114.835 303.839 115.171C303.229 115.5 302.749 115.957 302.397 116.542C302.046 117.128 301.87 117.804 301.87 118.57V129.152H297.628ZM314.909 129.515C313.769 129.515 312.741 129.312 311.827 128.906C310.921 128.492 310.202 127.882 309.671 127.078C309.148 126.273 308.886 125.281 308.886 124.101C308.886 123.085 309.073 122.246 309.448 121.582C309.823 120.917 310.335 120.386 310.983 119.988C311.632 119.589 312.362 119.289 313.175 119.085C313.995 118.875 314.843 118.722 315.718 118.628C316.773 118.519 317.628 118.421 318.284 118.335C318.94 118.242 319.417 118.101 319.714 117.914C320.019 117.718 320.171 117.417 320.171 117.011V116.941C320.171 116.058 319.909 115.375 319.386 114.89C318.862 114.406 318.108 114.164 317.124 114.164C316.085 114.164 315.261 114.39 314.651 114.843C314.05 115.296 313.644 115.832 313.433 116.449L309.472 115.886C309.784 114.792 310.3 113.878 311.019 113.144C311.737 112.402 312.616 111.847 313.655 111.48C314.694 111.105 315.843 110.917 317.101 110.917C317.968 110.917 318.831 111.019 319.69 111.222C320.55 111.425 321.335 111.761 322.046 112.23C322.757 112.691 323.327 113.32 323.757 114.117C324.194 114.914 324.413 115.91 324.413 117.105V129.152H320.335V126.679H320.194C319.937 127.179 319.573 127.648 319.105 128.085C318.644 128.515 318.062 128.863 317.358 129.128C316.663 129.386 315.847 129.515 314.909 129.515ZM316.011 126.398C316.862 126.398 317.601 126.23 318.226 125.894C318.851 125.55 319.331 125.097 319.667 124.535C320.011 123.972 320.183 123.359 320.183 122.695V120.574C320.05 120.683 319.823 120.785 319.503 120.878C319.19 120.972 318.839 121.054 318.448 121.125C318.058 121.195 317.671 121.257 317.288 121.312C316.905 121.367 316.573 121.414 316.292 121.453C315.659 121.539 315.093 121.679 314.593 121.875C314.093 122.07 313.698 122.343 313.409 122.695C313.12 123.039 312.976 123.484 312.976 124.031C312.976 124.812 313.261 125.402 313.831 125.8C314.401 126.199 315.128 126.398 316.011 126.398ZM332.261 118.605V129.152H328.019V111.152H332.073V114.21H332.284C332.698 113.203 333.359 112.402 334.265 111.808C335.179 111.214 336.308 110.917 337.652 110.917C338.894 110.917 339.976 111.183 340.898 111.714C341.827 112.246 342.546 113.015 343.054 114.023C343.57 115.031 343.823 116.253 343.816 117.691V129.152H339.573V118.347C339.573 117.144 339.261 116.203 338.636 115.523C338.019 114.843 337.163 114.503 336.07 114.503C335.327 114.503 334.667 114.667 334.089 114.996C333.519 115.316 333.07 115.781 332.741 116.39C332.421 117 332.261 117.738 332.261 118.605ZM361.695 115.91L357.828 116.332C357.718 115.941 357.527 115.574 357.253 115.23C356.988 114.886 356.628 114.609 356.175 114.398C355.722 114.187 355.167 114.082 354.511 114.082C353.628 114.082 352.886 114.273 352.285 114.656C351.691 115.039 351.398 115.535 351.406 116.144C351.398 116.667 351.589 117.093 351.98 117.421C352.378 117.75 353.035 118.019 353.949 118.23L357.019 118.886C358.722 119.253 359.988 119.835 360.816 120.632C361.652 121.429 362.074 122.472 362.081 123.761C362.074 124.894 361.742 125.894 361.085 126.761C360.437 127.621 359.535 128.292 358.378 128.777C357.222 129.261 355.894 129.503 354.394 129.503C352.191 129.503 350.417 129.042 349.074 128.121C347.73 127.191 346.929 125.898 346.671 124.242L350.808 123.843C350.995 124.656 351.394 125.269 352.003 125.683C352.613 126.097 353.406 126.304 354.382 126.304C355.39 126.304 356.199 126.097 356.808 125.683C357.425 125.269 357.734 124.757 357.734 124.148C357.734 123.632 357.535 123.207 357.136 122.871C356.745 122.535 356.136 122.277 355.308 122.097L352.238 121.453C350.511 121.093 349.234 120.488 348.406 119.636C347.578 118.777 347.167 117.691 347.175 116.378C347.167 115.269 347.468 114.308 348.078 113.496C348.695 112.675 349.55 112.042 350.644 111.597C351.745 111.144 353.015 110.917 354.453 110.917C356.562 110.917 358.222 111.367 359.433 112.265C360.652 113.164 361.406 114.378 361.695 115.91ZM364.919 135.902V111.152H369.091V114.128H369.337C369.556 113.691 369.865 113.226 370.263 112.734C370.662 112.234 371.201 111.808 371.88 111.457C372.56 111.097 373.427 110.917 374.482 110.917C375.873 110.917 377.126 111.273 378.244 111.984C379.369 112.687 380.259 113.73 380.916 115.113C381.58 116.488 381.912 118.175 381.912 120.175C381.912 122.152 381.587 123.832 380.939 125.214C380.291 126.597 379.408 127.652 378.291 128.378C377.173 129.105 375.908 129.468 374.494 129.468C373.462 129.468 372.607 129.296 371.927 128.953C371.248 128.609 370.701 128.195 370.287 127.71C369.88 127.218 369.564 126.753 369.337 126.316H369.162V135.902H364.919ZM369.08 120.152C369.08 121.316 369.244 122.335 369.572 123.21C369.908 124.085 370.388 124.769 371.013 125.261C371.646 125.746 372.412 125.988 373.31 125.988C374.248 125.988 375.033 125.738 375.666 125.238C376.298 124.73 376.775 124.039 377.095 123.164C377.423 122.281 377.587 121.277 377.587 120.152C377.587 119.035 377.427 118.042 377.107 117.175C376.787 116.308 376.31 115.628 375.677 115.136C375.044 114.644 374.255 114.398 373.31 114.398C372.404 114.398 371.634 114.636 371.001 115.113C370.369 115.589 369.888 116.257 369.56 117.117C369.24 117.976 369.08 118.988 369.08 120.152ZM390.064 129.515C388.924 129.515 387.896 129.312 386.982 128.906C386.076 128.492 385.357 127.882 384.826 127.078C384.302 126.273 384.041 125.281 384.041 124.101C384.041 123.085 384.228 122.246 384.603 121.582C384.978 120.917 385.49 120.386 386.138 119.988C386.787 119.589 387.517 119.289 388.33 119.085C389.15 118.875 389.998 118.722 390.873 118.628C391.927 118.519 392.783 118.421 393.439 118.335C394.095 118.242 394.572 118.101 394.869 117.914C395.174 117.718 395.326 117.417 395.326 117.011V116.941C395.326 116.058 395.064 115.375 394.541 114.89C394.017 114.406 393.263 114.164 392.279 114.164C391.24 114.164 390.416 114.39 389.806 114.843C389.205 115.296 388.799 115.832 388.588 116.449L384.627 115.886C384.939 114.792 385.455 113.878 386.174 113.144C386.892 112.402 387.771 111.847 388.81 111.48C389.849 111.105 390.998 110.917 392.256 110.917C393.123 110.917 393.986 111.019 394.845 111.222C395.705 111.425 396.49 111.761 397.201 112.23C397.912 112.691 398.482 113.32 398.912 114.117C399.349 114.914 399.568 115.91 399.568 117.105V129.152H395.49V126.679H395.349C395.091 127.179 394.728 127.648 394.259 128.085C393.799 128.515 393.216 128.863 392.513 129.128C391.818 129.386 391.002 129.515 390.064 129.515ZM391.166 126.398C392.017 126.398 392.756 126.23 393.381 125.894C394.006 125.55 394.486 125.097 394.822 124.535C395.166 123.972 395.338 123.359 395.338 122.695V120.574C395.205 120.683 394.978 120.785 394.658 120.878C394.345 120.972 393.994 121.054 393.603 121.125C393.213 121.195 392.826 121.257 392.443 121.312C392.06 121.367 391.728 121.414 391.447 121.453C390.814 121.539 390.248 121.679 389.748 121.875C389.248 122.07 388.853 122.343 388.564 122.695C388.275 123.039 388.131 123.484 388.131 124.031C388.131 124.812 388.416 125.402 388.986 125.8C389.556 126.199 390.283 126.398 391.166 126.398ZM403.174 129.152V111.152H407.287V114.152H407.474C407.803 113.113 408.365 112.312 409.162 111.75C409.967 111.179 410.885 110.894 411.916 110.894C412.15 110.894 412.412 110.906 412.701 110.929C412.998 110.945 413.244 110.972 413.439 111.011V114.914C413.26 114.851 412.974 114.796 412.584 114.75C412.201 114.695 411.83 114.667 411.471 114.667C410.697 114.667 410.002 114.835 409.385 115.171C408.775 115.5 408.295 115.957 407.943 116.542C407.592 117.128 407.416 117.804 407.416 118.57V129.152H403.174ZM422.825 129.503C421.021 129.503 419.462 129.128 418.149 128.378C416.845 127.621 415.841 126.55 415.138 125.167C414.435 123.777 414.083 122.14 414.083 120.257C414.083 118.406 414.435 116.781 415.138 115.382C415.849 113.976 416.841 112.882 418.114 112.101C419.388 111.312 420.884 110.917 422.603 110.917C423.712 110.917 424.759 111.097 425.743 111.457C426.735 111.808 427.61 112.355 428.368 113.097C429.134 113.839 429.735 114.785 430.173 115.933C430.61 117.074 430.829 118.433 430.829 120.011V121.312H416.075V118.453H426.763C426.755 117.64 426.579 116.917 426.235 116.285C425.892 115.644 425.411 115.14 424.794 114.773C424.185 114.406 423.474 114.222 422.661 114.222C421.794 114.222 421.032 114.433 420.376 114.855C419.72 115.269 419.208 115.816 418.841 116.496C418.481 117.167 418.298 117.906 418.29 118.71V121.207C418.29 122.253 418.481 123.152 418.864 123.902C419.247 124.644 419.782 125.214 420.47 125.613C421.157 126.003 421.962 126.199 422.884 126.199C423.501 126.199 424.06 126.113 424.56 125.941C425.06 125.761 425.493 125.5 425.86 125.156C426.228 124.812 426.505 124.386 426.692 123.878L430.653 124.324C430.403 125.371 429.927 126.285 429.224 127.066C428.528 127.839 427.638 128.441 426.552 128.871C425.466 129.292 424.224 129.503 422.825 129.503ZM438 118.605V129.152H433.758V111.152H437.813V114.21H438.024C438.438 113.203 439.098 112.402 440.004 111.808C440.918 111.214 442.047 110.917 443.391 110.917C444.633 110.917 445.715 111.183 446.637 111.714C447.567 112.246 448.285 113.015 448.793 114.023C449.309 115.031 449.563 116.253 449.555 117.691V129.152H445.313V118.347C445.313 117.144 445 116.203 444.375 115.523C443.758 114.843 442.903 114.503 441.809 114.503C441.067 114.503 440.406 114.667 439.828 114.996C439.258 115.316 438.809 115.781 438.481 116.39C438.16 117 438 117.738 438 118.605ZM461.059 129.503C459.262 129.503 457.719 129.109 456.43 128.32C455.149 127.531 454.16 126.441 453.465 125.05C452.778 123.652 452.434 122.042 452.434 120.222C452.434 118.394 452.785 116.781 453.489 115.382C454.192 113.976 455.184 112.882 456.465 112.101C457.754 111.312 459.278 110.917 461.035 110.917C462.496 110.917 463.789 111.187 464.914 111.726C466.047 112.257 466.95 113.011 467.621 113.988C468.293 114.957 468.676 116.089 468.77 117.386H464.715C464.551 116.519 464.16 115.796 463.543 115.218C462.934 114.632 462.118 114.339 461.094 114.339C460.227 114.339 459.465 114.574 458.809 115.042C458.153 115.503 457.641 116.167 457.274 117.035C456.914 117.902 456.735 118.941 456.735 120.152C456.735 121.378 456.914 122.433 457.274 123.316C457.633 124.191 458.137 124.867 458.785 125.343C459.442 125.812 460.211 126.046 461.094 126.046C461.719 126.046 462.278 125.929 462.77 125.695C463.27 125.453 463.688 125.105 464.024 124.652C464.36 124.199 464.59 123.648 464.715 123H468.77C468.668 124.273 468.293 125.402 467.645 126.386C466.996 127.363 466.114 128.128 464.996 128.683C463.879 129.23 462.567 129.503 461.059 129.503ZM474.23 135.902C473.652 135.902 473.117 135.855 472.625 135.761C472.14 135.675 471.753 135.574 471.464 135.457L472.449 132.152C473.066 132.332 473.617 132.417 474.101 132.41C474.585 132.402 475.011 132.25 475.378 131.953C475.753 131.664 476.07 131.179 476.328 130.5L476.691 129.527L470.164 111.152H474.664L478.812 124.746H479L483.16 111.152H487.671L480.464 131.332C480.128 132.285 479.683 133.101 479.128 133.781C478.574 134.468 477.894 134.992 477.089 135.351C476.292 135.718 475.339 135.902 474.23 135.902ZM505.324 129.503C503.566 129.503 502.043 129.117 500.754 128.343C499.465 127.57 498.465 126.488 497.754 125.097C497.051 123.707 496.699 122.082 496.699 120.222C496.699 118.363 497.051 116.734 497.754 115.335C498.465 113.937 499.465 112.851 500.754 112.078C502.043 111.304 503.566 110.917 505.324 110.917C507.082 110.917 508.605 111.304 509.894 112.078C511.183 112.851 512.18 113.937 512.883 115.335C513.594 116.734 513.949 118.363 513.949 120.222C513.949 122.082 513.594 123.707 512.883 125.097C512.18 126.488 511.183 127.57 509.894 128.343C508.605 129.117 507.082 129.503 505.324 129.503ZM505.347 126.105C506.301 126.105 507.097 125.843 507.738 125.32C508.379 124.789 508.855 124.078 509.168 123.187C509.488 122.296 509.648 121.304 509.648 120.21C509.648 119.109 509.488 118.113 509.168 117.222C508.855 116.324 508.379 115.609 507.738 115.078C507.097 114.546 506.301 114.281 505.347 114.281C504.371 114.281 503.558 114.546 502.91 115.078C502.269 115.609 501.789 116.324 501.469 117.222C501.156 118.113 501 119.109 501 120.21C501 121.304 501.156 122.296 501.469 123.187C501.789 124.078 502.269 124.789 502.91 125.32C503.558 125.843 504.371 126.105 505.347 126.105ZM526.007 111.152V114.433H515.366V111.152H526.007ZM518.026 129.152V109.453C518.026 108.242 518.276 107.234 518.776 106.429C519.284 105.625 519.964 105.023 520.815 104.625C521.667 104.226 522.612 104.027 523.651 104.027C524.386 104.027 525.038 104.085 525.608 104.203C526.179 104.32 526.601 104.425 526.874 104.519L526.03 107.8C525.851 107.746 525.624 107.691 525.351 107.636C525.077 107.574 524.772 107.542 524.436 107.542C523.647 107.542 523.089 107.734 522.761 108.117C522.44 108.492 522.28 109.031 522.28 109.734V129.152H518.026ZM535.327 108.796V105.152H554.476V108.796H547.058V129.152H542.745V108.796H535.327ZM561.562 118.605V129.152H557.32V105.152H561.468V114.21H561.679C562.101 113.195 562.753 112.394 563.636 111.808C564.527 111.214 565.66 110.917 567.035 110.917C568.285 110.917 569.374 111.179 570.304 111.703C571.234 112.226 571.953 112.992 572.46 114C572.976 115.007 573.234 116.238 573.234 117.691V129.152H568.992V118.347C568.992 117.136 568.679 116.195 568.054 115.523C567.437 114.843 566.57 114.503 565.453 114.503C564.703 114.503 564.031 114.667 563.437 114.996C562.851 115.316 562.39 115.781 562.054 116.39C561.726 117 561.562 117.738 561.562 118.605ZM576.898 129.152V111.152H581.011V114.152H581.199C581.527 113.113 582.089 112.312 582.886 111.75C583.691 111.179 584.609 110.894 585.64 110.894C585.875 110.894 586.136 110.906 586.425 110.929C586.722 110.945 586.968 110.972 587.164 111.011V114.914C586.984 114.851 586.699 114.796 586.308 114.75C585.925 114.695 585.554 114.667 585.195 114.667C584.422 114.667 583.726 114.835 583.109 115.171C582.5 115.5 582.019 115.957 581.668 116.542C581.316 117.128 581.14 117.804 581.14 118.57V129.152H576.898ZM589.322 129.152V111.152H593.564V129.152H589.322ZM591.455 108.597C590.783 108.597 590.205 108.375 589.72 107.929C589.236 107.476 588.994 106.933 588.994 106.3C588.994 105.66 589.236 105.117 589.72 104.671C590.205 104.218 590.783 103.992 591.455 103.992C592.135 103.992 592.713 104.218 593.189 104.671C593.674 105.117 593.916 105.66 593.916 106.3C593.916 106.933 593.674 107.476 593.189 107.929C592.713 108.375 592.135 108.597 591.455 108.597ZM606.384 111.152V114.433H595.743V111.152H606.384ZM598.403 129.152V109.453C598.403 108.242 598.653 107.234 599.153 106.429C599.661 105.625 600.341 105.023 601.192 104.625C602.044 104.226 602.989 104.027 604.028 104.027C604.763 104.027 605.415 104.085 605.985 104.203C606.556 104.32 606.977 104.425 607.251 104.519L606.407 107.8C606.227 107.746 606.001 107.691 605.727 107.636C605.454 107.574 605.149 107.542 604.813 107.542C604.024 107.542 603.466 107.734 603.138 108.117C602.817 108.492 602.657 109.031 602.657 109.734V129.152H598.403ZM618.034 111.152V114.433H607.687V111.152H618.034ZM610.241 106.839H614.484V123.738C614.484 124.308 614.569 124.746 614.741 125.05C614.921 125.347 615.155 125.55 615.444 125.66C615.734 125.769 616.054 125.824 616.405 125.824C616.671 125.824 616.913 125.804 617.132 125.765C617.359 125.726 617.53 125.691 617.648 125.66L618.362 128.976C618.136 129.054 617.812 129.14 617.39 129.234C616.976 129.328 616.468 129.382 615.866 129.398C614.804 129.429 613.847 129.269 612.995 128.917C612.144 128.558 611.468 128.003 610.968 127.253C610.476 126.503 610.234 125.566 610.241 124.441V106.839ZM621.496 129.152V105.152H630.496C632.34 105.152 633.887 105.496 635.137 106.183C636.395 106.871 637.344 107.816 637.985 109.019C638.633 110.214 638.957 111.574 638.957 113.097C638.957 114.636 638.633 116.003 637.985 117.199C637.336 118.394 636.379 119.335 635.114 120.023C633.848 120.703 632.289 121.042 630.438 121.042H624.473V117.468H629.852C630.93 117.468 631.813 117.281 632.5 116.906C633.188 116.531 633.696 116.015 634.024 115.359C634.36 114.703 634.528 113.949 634.528 113.097C634.528 112.246 634.36 111.496 634.024 110.847C633.696 110.199 633.184 109.695 632.489 109.335C631.801 108.968 630.914 108.785 629.828 108.785H625.844V129.152H621.496ZM646.744 129.515C645.603 129.515 644.576 129.312 643.662 128.906C642.755 128.492 642.037 127.882 641.505 127.078C640.982 126.273 640.72 125.281 640.72 124.101C640.72 123.085 640.908 122.246 641.283 121.582C641.658 120.917 642.169 120.386 642.818 119.988C643.466 119.589 644.197 119.289 645.009 119.085C645.83 118.875 646.677 118.722 647.552 118.628C648.607 118.519 649.462 118.421 650.119 118.335C650.775 118.242 651.251 118.101 651.548 117.914C651.853 117.718 652.005 117.417 652.005 117.011V116.941C652.005 116.058 651.744 115.375 651.22 114.89C650.697 114.406 649.943 114.164 648.958 114.164C647.919 114.164 647.095 114.39 646.486 114.843C645.884 115.296 645.478 115.832 645.267 116.449L641.306 115.886C641.619 114.792 642.134 113.878 642.853 113.144C643.572 112.402 644.451 111.847 645.49 111.48C646.529 111.105 647.677 110.917 648.935 110.917C649.802 110.917 650.665 111.019 651.525 111.222C652.384 111.425 653.169 111.761 653.88 112.23C654.591 112.691 655.162 113.32 655.591 114.117C656.029 114.914 656.247 115.91 656.247 117.105V129.152H652.169V126.679H652.029C651.771 127.179 651.408 127.648 650.939 128.085C650.478 128.515 649.896 128.863 649.193 129.128C648.497 129.386 647.681 129.515 646.744 129.515ZM647.845 126.398C648.697 126.398 649.435 126.23 650.06 125.894C650.685 125.55 651.165 125.097 651.501 124.535C651.845 123.972 652.017 123.359 652.017 122.695V120.574C651.884 120.683 651.658 120.785 651.337 120.878C651.025 120.972 650.673 121.054 650.283 121.125C649.892 121.195 649.505 121.257 649.122 121.312C648.74 121.367 648.408 121.414 648.126 121.453C647.494 121.539 646.927 121.679 646.427 121.875C645.927 122.07 645.533 122.343 645.244 122.695C644.955 123.039 644.81 123.484 644.81 124.031C644.81 124.812 645.095 125.402 645.665 125.8C646.236 126.199 646.962 126.398 647.845 126.398ZM661.845 135.902C661.267 135.902 660.732 135.855 660.24 135.761C659.755 135.675 659.369 135.574 659.08 135.457L660.064 132.152C660.681 132.332 661.232 132.417 661.716 132.41C662.201 132.402 662.627 132.25 662.994 131.953C663.369 131.664 663.685 131.179 663.943 130.5L664.306 129.527L657.779 111.152H662.279L666.427 124.746H666.615L670.775 111.152H675.287L668.08 131.332C667.744 132.285 667.298 133.101 666.744 133.781C666.189 134.468 665.509 134.992 664.705 135.351C663.908 135.718 662.955 135.902 661.845 135.902ZM679.048 129.41C678.337 129.41 677.727 129.16 677.219 128.66C676.712 128.16 676.462 127.55 676.469 126.832C676.462 126.128 676.712 125.527 677.219 125.027C677.727 124.527 678.337 124.277 679.048 124.277C679.735 124.277 680.333 124.527 680.841 125.027C681.356 125.527 681.618 126.128 681.626 126.832C681.618 127.308 681.493 127.742 681.251 128.132C681.016 128.523 680.704 128.835 680.313 129.07C679.93 129.296 679.509 129.41 679.048 129.41ZM696.665 105.152V129.152H692.317V105.152H696.665ZM112.277 169.515C111.136 169.515 110.109 169.312 109.195 168.906C108.289 168.492 107.57 167.882 107.039 167.078C106.515 166.273 106.254 165.281 106.254 164.101C106.254 163.085 106.441 162.246 106.816 161.582C107.191 160.917 107.703 160.386 108.351 159.988C109 159.589 109.73 159.289 110.543 159.085C111.363 158.875 112.211 158.722 113.086 158.628C114.14 158.519 114.996 158.421 115.652 158.335C116.308 158.242 116.785 158.101 117.082 157.914C117.386 157.718 117.539 157.417 117.539 157.011V156.941C117.539 156.058 117.277 155.375 116.754 154.89C116.23 154.406 115.476 154.164 114.492 154.164C113.453 154.164 112.629 154.39 112.019 154.843C111.418 155.296 111.011 155.832 110.8 156.449L106.839 155.886C107.152 154.792 107.668 153.878 108.386 153.144C109.105 152.402 109.984 151.847 111.023 151.48C112.062 151.105 113.211 150.917 114.468 150.917C115.336 150.917 116.199 151.019 117.058 151.222C117.918 151.425 118.703 151.761 119.414 152.23C120.125 152.691 120.695 153.32 121.125 154.117C121.562 154.914 121.781 155.91 121.781 157.105V169.152H117.703V166.679H117.562C117.304 167.179 116.941 167.648 116.472 168.085C116.011 168.515 115.429 168.863 114.726 169.128C114.031 169.386 113.214 169.515 112.277 169.515ZM113.379 166.398C114.23 166.398 114.968 166.23 115.593 165.894C116.218 165.55 116.699 165.097 117.035 164.535C117.379 163.972 117.55 163.359 117.55 162.695V160.574C117.418 160.683 117.191 160.785 116.871 160.878C116.558 160.972 116.207 161.054 115.816 161.125C115.425 161.195 115.039 161.257 114.656 161.312C114.273 161.367 113.941 161.414 113.66 161.453C113.027 161.539 112.461 161.679 111.961 161.875C111.461 162.07 111.066 162.343 110.777 162.695C110.488 163.039 110.343 163.484 110.343 164.031C110.343 164.812 110.629 165.402 111.199 165.8C111.769 166.199 112.496 166.398 113.379 166.398ZM129.629 145.152V169.152H125.387V145.152H129.629ZM137.046 169.152L131.96 151.152H136.284L139.448 163.808H139.612L142.847 151.152H147.124L150.358 163.738H150.534L153.651 151.152H157.987L152.89 169.152H148.472L145.097 156.988H144.851L141.476 169.152H137.046ZM165.469 169.515C164.328 169.515 163.301 169.312 162.387 168.906C161.481 168.492 160.762 167.882 160.231 167.078C159.707 166.273 159.445 165.281 159.445 164.101C159.445 163.085 159.633 162.246 160.008 161.582C160.383 160.917 160.895 160.386 161.543 159.988C162.192 159.589 162.922 159.289 163.734 159.085C164.555 158.875 165.402 158.722 166.277 158.628C167.332 158.519 168.188 158.421 168.844 158.335C169.5 158.242 169.977 158.101 170.274 157.914C170.578 157.718 170.731 157.417 170.731 157.011V156.941C170.731 156.058 170.469 155.375 169.945 154.89C169.422 154.406 168.668 154.164 167.684 154.164C166.645 154.164 165.82 154.39 165.211 154.843C164.609 155.296 164.203 155.832 163.992 156.449L160.031 155.886C160.344 154.792 160.859 153.878 161.578 153.144C162.297 152.402 163.176 151.847 164.215 151.48C165.254 151.105 166.402 150.917 167.66 150.917C168.527 150.917 169.391 151.019 170.25 151.222C171.109 151.425 171.895 151.761 172.606 152.23C173.317 152.691 173.887 153.32 174.317 154.117C174.754 154.914 174.973 155.91 174.973 157.105V169.152H170.895V166.679H170.754C170.496 167.179 170.133 167.648 169.664 168.085C169.203 168.515 168.621 168.863 167.918 169.128C167.223 169.386 166.406 169.515 165.469 169.515ZM166.57 166.398C167.422 166.398 168.16 166.23 168.785 165.894C169.41 165.55 169.891 165.097 170.227 164.535C170.57 163.972 170.742 163.359 170.742 162.695V160.574C170.609 160.683 170.383 160.785 170.063 160.878C169.75 160.972 169.399 161.054 169.008 161.125C168.617 161.195 168.231 161.257 167.848 161.312C167.465 161.367 167.133 161.414 166.852 161.453C166.219 161.539 165.652 161.679 165.152 161.875C164.652 162.07 164.258 162.343 163.969 162.695C163.68 163.039 163.535 163.484 163.535 164.031C163.535 164.812 163.82 165.402 164.391 165.8C164.961 166.199 165.688 166.398 166.57 166.398ZM180.571 175.902C179.992 175.902 179.457 175.855 178.965 175.761C178.481 175.675 178.094 175.574 177.805 175.457L178.789 172.152C179.407 172.332 179.957 172.417 180.442 172.41C180.926 172.402 181.352 172.25 181.719 171.953C182.094 171.664 182.41 171.179 182.668 170.5L183.032 169.527L176.504 151.152H181.004L185.153 164.746H185.34L189.5 151.152H194.012L186.805 171.332C186.469 172.285 186.024 173.101 185.469 173.781C184.914 174.468 184.235 174.992 183.43 175.351C182.633 175.718 181.68 175.902 180.571 175.902ZM210.514 155.91L206.647 156.332C206.538 155.941 206.346 155.574 206.073 155.23C205.807 154.886 205.448 154.609 204.995 154.398C204.541 154.187 203.987 154.082 203.33 154.082C202.448 154.082 201.705 154.273 201.104 154.656C200.51 155.039 200.217 155.535 200.225 156.144C200.217 156.667 200.409 157.093 200.799 157.421C201.198 157.75 201.854 158.019 202.768 158.23L205.838 158.886C207.541 159.253 208.807 159.835 209.635 160.632C210.471 161.429 210.893 162.472 210.901 163.761C210.893 164.894 210.561 165.894 209.905 166.761C209.256 167.621 208.354 168.292 207.198 168.777C206.041 169.261 204.713 169.503 203.213 169.503C201.01 169.503 199.237 169.042 197.893 168.121C196.549 167.191 195.748 165.898 195.491 164.242L199.627 163.843C199.815 164.656 200.213 165.269 200.823 165.683C201.432 166.097 202.225 166.304 203.202 166.304C204.209 166.304 205.018 166.097 205.627 165.683C206.245 165.269 206.553 164.757 206.553 164.148C206.553 163.632 206.354 163.207 205.955 162.871C205.565 162.535 204.955 162.277 204.127 162.097L201.057 161.453C199.33 161.093 198.053 160.488 197.225 159.636C196.397 158.777 195.987 157.691 195.995 156.378C195.987 155.269 196.288 154.308 196.897 153.496C197.514 152.675 198.37 152.042 199.463 151.597C200.565 151.144 201.834 150.917 203.272 150.917C205.381 150.917 207.041 151.367 208.252 152.265C209.471 153.164 210.225 154.378 210.514 155.91ZM225.132 163.503L225.12 158.382H225.8L232.268 151.152H237.225L229.268 160.011H228.389L225.132 163.503ZM221.264 169.152V145.152H225.507V169.152H221.264ZM232.561 169.152L226.702 160.96L229.561 157.972L237.635 169.152H232.561ZM243.635 158.605V169.152H239.392V151.152H243.447V154.21H243.658C244.072 153.203 244.732 152.402 245.639 151.808C246.553 151.214 247.682 150.917 249.025 150.917C250.267 150.917 251.35 151.183 252.271 151.714C253.201 152.246 253.92 153.015 254.428 154.023C254.943 155.031 255.197 156.253 255.189 157.691V169.152H250.947V158.347C250.947 157.144 250.635 156.203 250.01 155.523C249.392 154.843 248.537 154.503 247.443 154.503C246.701 154.503 246.041 154.667 245.463 154.996C244.892 155.316 244.443 155.781 244.115 156.39C243.795 157 243.635 157.738 243.635 158.605ZM266.693 169.503C264.936 169.503 263.412 169.117 262.123 168.343C260.834 167.57 259.834 166.488 259.123 165.097C258.42 163.707 258.068 162.082 258.068 160.222C258.068 158.363 258.42 156.734 259.123 155.335C259.834 153.937 260.834 152.851 262.123 152.078C263.412 151.304 264.936 150.917 266.693 150.917C268.451 150.917 269.975 151.304 271.264 152.078C272.553 152.851 273.549 153.937 274.252 155.335C274.963 156.734 275.318 158.363 275.318 160.222C275.318 162.082 274.963 163.707 274.252 165.097C273.549 166.488 272.553 167.57 271.264 168.343C269.975 169.117 268.451 169.503 266.693 169.503ZM266.717 166.105C267.67 166.105 268.467 165.843 269.107 165.32C269.748 164.789 270.225 164.078 270.537 163.187C270.857 162.296 271.018 161.304 271.018 160.21C271.018 159.109 270.857 158.113 270.537 157.222C270.225 156.324 269.748 155.609 269.107 155.078C268.467 154.546 267.67 154.281 266.717 154.281C265.74 154.281 264.928 154.546 264.279 155.078C263.639 155.609 263.158 156.324 262.838 157.222C262.525 158.113 262.369 159.109 262.369 160.21C262.369 161.304 262.525 162.296 262.838 163.187C263.158 164.078 263.639 164.789 264.279 165.32C264.928 165.843 265.74 166.105 266.717 166.105ZM281.458 169.152L276.372 151.152H280.697L283.861 163.808H284.025L287.259 151.152H291.536L294.771 163.738H294.947L298.064 151.152H302.4L297.302 169.152H292.884L289.509 156.988H289.263L285.888 169.152H281.458ZM315.942 169.152L310.856 151.152H315.18L318.344 163.808H318.508L321.743 151.152H326.02L329.254 163.738H329.43L332.547 151.152H336.883L331.786 169.152H327.368L323.993 156.988H323.747L320.372 169.152H315.942ZM343.427 158.605V169.152H339.185V145.152H343.334V154.21H343.545C343.966 153.195 344.619 152.394 345.502 151.808C346.392 151.214 347.525 150.917 348.9 150.917C350.15 150.917 351.24 151.179 352.17 151.703C353.099 152.226 353.818 152.992 354.326 154C354.841 155.007 355.099 156.238 355.099 157.691V169.152H350.857V158.347C350.857 157.136 350.545 156.195 349.92 155.523C349.302 154.843 348.435 154.503 347.318 154.503C346.568 154.503 345.896 154.667 345.302 154.996C344.716 155.316 344.256 155.781 343.92 156.39C343.591 157 343.427 157.738 343.427 158.605ZM366.732 169.503C364.928 169.503 363.369 169.128 362.057 168.378C360.752 167.621 359.748 166.55 359.045 165.167C358.342 163.777 357.99 162.14 357.99 160.257C357.99 158.406 358.342 156.781 359.045 155.382C359.756 153.976 360.748 152.882 362.021 152.101C363.295 151.312 364.791 150.917 366.51 150.917C367.619 150.917 368.666 151.097 369.65 151.457C370.642 151.808 371.517 152.355 372.275 153.097C373.041 153.839 373.642 154.785 374.08 155.933C374.517 157.074 374.736 158.433 374.736 160.011V161.312H359.982V158.453H370.67C370.662 157.64 370.486 156.917 370.142 156.285C369.799 155.644 369.318 155.14 368.701 154.773C368.092 154.406 367.381 154.222 366.568 154.222C365.701 154.222 364.939 154.433 364.283 154.855C363.627 155.269 363.115 155.816 362.748 156.496C362.389 157.167 362.205 157.906 362.197 158.71V161.207C362.197 162.253 362.389 163.152 362.771 163.902C363.154 164.644 363.689 165.214 364.377 165.613C365.064 166.003 365.869 166.199 366.791 166.199C367.408 166.199 367.967 166.113 368.467 165.941C368.967 165.761 369.4 165.5 369.767 165.156C370.135 164.812 370.412 164.386 370.599 163.878L374.56 164.324C374.31 165.371 373.834 166.285 373.131 167.066C372.435 167.839 371.545 168.441 370.459 168.871C369.373 169.292 368.131 169.503 366.732 169.503ZM377.665 169.152V151.152H381.778V154.152H381.966C382.294 153.113 382.856 152.312 383.653 151.75C384.458 151.179 385.376 150.894 386.407 150.894C386.642 150.894 386.903 150.906 387.192 150.929C387.489 150.945 387.735 150.972 387.931 151.011V154.914C387.751 154.851 387.466 154.796 387.075 154.75C386.692 154.695 386.321 154.667 385.962 154.667C385.189 154.667 384.493 154.835 383.876 155.171C383.267 155.5 382.786 155.957 382.435 156.542C382.083 157.128 381.907 157.804 381.907 158.57V169.152H377.665ZM397.317 169.503C395.512 169.503 393.953 169.128 392.641 168.378C391.336 167.621 390.332 166.55 389.629 165.167C388.926 163.777 388.574 162.14 388.574 160.257C388.574 158.406 388.926 156.781 389.629 155.382C390.34 153.976 391.332 152.882 392.606 152.101C393.879 151.312 395.375 150.917 397.094 150.917C398.203 150.917 399.25 151.097 400.235 151.457C401.227 151.808 402.102 152.355 402.86 153.097C403.625 153.839 404.227 154.785 404.664 155.933C405.102 157.074 405.32 158.433 405.32 160.011V161.312H390.567V158.453H401.254C401.246 157.64 401.07 156.917 400.727 156.285C400.383 155.644 399.903 155.14 399.285 154.773C398.676 154.406 397.965 154.222 397.153 154.222C396.285 154.222 395.524 154.433 394.867 154.855C394.211 155.269 393.699 155.816 393.332 156.496C392.973 157.167 392.789 157.906 392.781 158.71V161.207C392.781 162.253 392.973 163.152 393.356 163.902C393.738 164.644 394.274 165.214 394.961 165.613C395.649 166.003 396.453 166.199 397.375 166.199C397.992 166.199 398.551 166.113 399.051 165.941C399.551 165.761 399.985 165.5 400.352 165.156C400.719 164.812 400.996 164.386 401.184 163.878L405.145 164.324C404.895 165.371 404.418 166.285 403.715 167.066C403.02 167.839 402.129 168.441 401.043 168.871C399.957 169.292 398.715 169.503 397.317 169.503ZM415.775 169.152V151.152H419.83V154.21H420.041C420.416 153.179 421.037 152.375 421.904 151.796C422.771 151.21 423.806 150.917 425.009 150.917C426.228 150.917 427.255 151.214 428.091 151.808C428.935 152.394 429.529 153.195 429.873 154.21H430.06C430.458 153.21 431.13 152.414 432.076 151.82C433.029 151.218 434.158 150.917 435.462 150.917C437.119 150.917 438.47 151.441 439.517 152.488C440.564 153.535 441.087 155.062 441.087 157.07V169.152H436.833V157.726C436.833 156.609 436.537 155.792 435.943 155.277C435.349 154.753 434.623 154.492 433.763 154.492C432.74 154.492 431.939 154.812 431.361 155.453C430.791 156.085 430.505 156.91 430.505 157.925V169.152H426.345V157.55C426.345 156.621 426.064 155.878 425.501 155.324C424.947 154.769 424.22 154.492 423.322 154.492C422.712 154.492 422.158 154.648 421.658 154.96C421.158 155.265 420.759 155.699 420.462 156.261C420.166 156.816 420.017 157.464 420.017 158.207V169.152H415.775ZM446.723 175.902C446.145 175.902 445.61 175.855 445.118 175.761C444.633 175.675 444.247 175.574 443.958 175.457L444.942 172.152C445.559 172.332 446.11 172.417 446.594 172.41C447.079 172.402 447.505 172.25 447.872 171.953C448.247 171.664 448.563 171.179 448.821 170.5L449.184 169.527L442.657 151.152H447.157L451.305 164.746H451.493L455.653 151.152H460.165L452.958 171.332C452.622 172.285 452.176 173.101 451.622 173.781C451.067 174.468 450.387 174.992 449.583 175.351C448.786 175.718 447.833 175.902 446.723 175.902ZM469.966 169.152V151.152H474.021V154.21H474.231C474.606 153.179 475.228 152.375 476.095 151.796C476.962 151.21 477.997 150.917 479.2 150.917C480.419 150.917 481.446 151.214 482.282 151.808C483.126 152.394 483.72 153.195 484.063 154.21H484.251C484.649 153.21 485.321 152.414 486.267 151.82C487.22 151.218 488.349 150.917 489.653 150.917C491.31 150.917 492.661 151.441 493.708 152.488C494.755 153.535 495.278 155.062 495.278 157.07V169.152H491.024V157.726C491.024 156.609 490.728 155.792 490.134 155.277C489.54 154.753 488.813 154.492 487.954 154.492C486.931 154.492 486.13 154.812 485.552 155.453C484.981 156.085 484.696 156.91 484.696 157.925V169.152H480.536V157.55C480.536 156.621 480.255 155.878 479.692 155.324C479.138 154.769 478.411 154.492 477.513 154.492C476.903 154.492 476.349 154.648 475.849 154.96C475.349 155.265 474.95 155.699 474.653 156.261C474.356 156.816 474.208 157.464 474.208 158.207V169.152H469.966ZM506.774 169.503C505.016 169.503 503.492 169.117 502.203 168.343C500.914 167.57 499.914 166.488 499.203 165.097C498.5 163.707 498.149 162.082 498.149 160.222C498.149 158.363 498.5 156.734 499.203 155.335C499.914 153.937 500.914 152.851 502.203 152.078C503.492 151.304 505.016 150.917 506.774 150.917C508.531 150.917 510.055 151.304 511.344 152.078C512.633 152.851 513.629 153.937 514.332 155.335C515.043 156.734 515.399 158.363 515.399 160.222C515.399 162.082 515.043 163.707 514.332 165.097C513.629 166.488 512.633 167.57 511.344 168.343C510.055 169.117 508.531 169.503 506.774 169.503ZM506.797 166.105C507.75 166.105 508.547 165.843 509.188 165.32C509.828 164.789 510.305 164.078 510.617 163.187C510.938 162.296 511.098 161.304 511.098 160.21C511.098 159.109 510.938 158.113 510.617 157.222C510.305 156.324 509.828 155.609 509.188 155.078C508.547 154.546 507.75 154.281 506.797 154.281C505.82 154.281 505.008 154.546 504.36 155.078C503.719 155.609 503.238 156.324 502.918 157.222C502.606 158.113 502.449 159.109 502.449 160.21C502.449 161.304 502.606 162.296 502.918 163.187C503.238 164.078 503.719 164.789 504.36 165.32C505.008 165.843 505.82 166.105 506.797 166.105ZM522.581 158.605V169.152H518.339V151.152H522.394V154.21H522.605C523.019 153.203 523.679 152.402 524.585 151.808C525.499 151.214 526.628 150.917 527.972 150.917C529.214 150.917 530.296 151.183 531.218 151.714C532.148 152.246 532.867 153.015 533.374 154.023C533.89 155.031 534.144 156.253 534.136 157.691V169.152H529.894V158.347C529.894 157.144 529.581 156.203 528.956 155.523C528.339 154.843 527.484 154.503 526.39 154.503C525.648 154.503 524.988 154.667 524.409 154.996C523.839 155.316 523.39 155.781 523.062 156.39C522.742 157 522.581 157.738 522.581 158.605ZM545.757 169.503C543.953 169.503 542.394 169.128 541.082 168.378C539.777 167.621 538.773 166.55 538.07 165.167C537.367 163.777 537.015 162.14 537.015 160.257C537.015 158.406 537.367 156.781 538.07 155.382C538.781 153.976 539.773 152.882 541.046 152.101C542.32 151.312 543.816 150.917 545.535 150.917C546.644 150.917 547.691 151.097 548.675 151.457C549.667 151.808 550.542 152.355 551.3 153.097C552.066 153.839 552.667 154.785 553.105 155.933C553.542 157.074 553.761 158.433 553.761 160.011V161.312H539.007V158.453H549.695C549.687 157.64 549.511 156.917 549.167 156.285C548.824 155.644 548.343 155.14 547.726 154.773C547.117 154.406 546.406 154.222 545.593 154.222C544.726 154.222 543.964 154.433 543.308 154.855C542.652 155.269 542.14 155.816 541.773 156.496C541.414 157.167 541.23 157.906 541.222 158.71V161.207C541.222 162.253 541.414 163.152 541.796 163.902C542.179 164.644 542.714 165.214 543.402 165.613C544.089 166.003 544.894 166.199 545.816 166.199C546.433 166.199 546.992 166.113 547.492 165.941C547.992 165.761 548.425 165.5 548.792 165.156C549.16 164.812 549.437 164.386 549.624 163.878L553.585 164.324C553.335 165.371 552.859 166.285 552.156 167.066C551.46 167.839 550.57 168.441 549.484 168.871C548.398 169.292 547.156 169.503 545.757 169.503ZM558.811 175.902C558.233 175.902 557.698 175.855 557.206 175.761C556.721 175.675 556.335 175.574 556.046 175.457L557.03 172.152C557.647 172.332 558.198 172.417 558.682 172.41C559.167 172.402 559.592 172.25 559.96 171.953C560.335 171.664 560.651 171.179 560.909 170.5L561.272 169.527L554.745 151.152H559.245L563.393 164.746H563.581L567.741 151.152H572.253L565.046 171.332C564.71 172.285 564.264 173.101 563.71 173.781C563.155 174.468 562.475 174.992 561.671 175.351C560.874 175.718 559.921 175.902 558.811 175.902ZM582.054 169.152V151.152H586.296V169.152H582.054ZM584.186 148.597C583.515 148.597 582.936 148.375 582.452 147.929C581.968 147.476 581.726 146.933 581.726 146.3C581.726 145.66 581.968 145.117 582.452 144.671C582.936 144.218 583.515 143.992 584.186 143.992C584.866 143.992 585.444 144.218 585.921 144.671C586.405 145.117 586.647 145.66 586.647 146.3C586.647 146.933 586.405 147.476 585.921 147.929C585.444 148.375 584.866 148.597 584.186 148.597ZM604.225 155.91L600.358 156.332C600.248 155.941 600.057 155.574 599.783 155.23C599.518 154.886 599.158 154.609 598.705 154.398C598.252 154.187 597.697 154.082 597.041 154.082C596.158 154.082 595.416 154.273 594.815 154.656C594.221 155.039 593.928 155.535 593.936 156.144C593.928 156.667 594.119 157.093 594.51 157.421C594.908 157.75 595.565 158.019 596.479 158.23L599.549 158.886C601.252 159.253 602.518 159.835 603.346 160.632C604.182 161.429 604.604 162.472 604.611 163.761C604.604 164.894 604.272 165.894 603.615 166.761C602.967 167.621 602.065 168.292 600.908 168.777C599.752 169.261 598.424 169.503 596.924 169.503C594.721 169.503 592.947 169.042 591.604 168.121C590.26 167.191 589.459 165.898 589.201 164.242L593.338 163.843C593.525 164.656 593.924 165.269 594.533 165.683C595.143 166.097 595.936 166.304 596.912 166.304C597.92 166.304 598.729 166.097 599.338 165.683C599.955 165.269 600.264 164.757 600.264 164.148C600.264 163.632 600.065 163.207 599.666 162.871C599.275 162.535 598.666 162.277 597.838 162.097L594.768 161.453C593.041 161.093 591.764 160.488 590.936 159.636C590.108 158.777 589.697 157.691 589.705 156.378C589.697 155.269 589.998 154.308 590.608 153.496C591.225 152.675 592.08 152.042 593.174 151.597C594.275 151.144 595.545 150.917 596.983 150.917C599.092 150.917 600.752 151.367 601.963 152.265C603.182 153.164 603.936 154.378 604.225 155.91ZM622.803 176.277C621.28 176.277 619.971 176.07 618.877 175.656C617.784 175.25 616.905 174.703 616.241 174.015C615.577 173.328 615.116 172.566 614.858 171.73L618.678 170.804C618.85 171.156 619.1 171.503 619.428 171.847C619.756 172.199 620.198 172.488 620.752 172.714C621.315 172.949 622.022 173.066 622.873 173.066C624.077 173.066 625.073 172.773 625.862 172.187C626.651 171.609 627.045 170.656 627.045 169.328V165.917H626.834C626.616 166.355 626.295 166.804 625.873 167.265C625.459 167.726 624.909 168.113 624.221 168.425C623.541 168.738 622.686 168.894 621.655 168.894C620.272 168.894 619.018 168.57 617.893 167.921C616.776 167.265 615.885 166.289 615.221 164.992C614.565 163.687 614.237 162.054 614.237 160.093C614.237 158.117 614.565 156.449 615.221 155.089C615.885 153.722 616.78 152.687 617.905 151.984C619.03 151.273 620.284 150.917 621.666 150.917C622.721 150.917 623.588 151.097 624.268 151.457C624.956 151.808 625.502 152.234 625.909 152.734C626.315 153.226 626.623 153.691 626.834 154.128H627.069V151.152H631.252V169.445C631.252 170.984 630.885 172.257 630.151 173.265C629.416 174.273 628.413 175.027 627.139 175.527C625.866 176.027 624.42 176.277 622.803 176.277ZM622.838 165.566C623.737 165.566 624.502 165.347 625.135 164.91C625.768 164.472 626.248 163.843 626.577 163.023C626.905 162.203 627.069 161.218 627.069 160.07C627.069 158.937 626.905 157.945 626.577 157.093C626.256 156.242 625.78 155.582 625.147 155.113C624.522 154.636 623.752 154.398 622.838 154.398C621.893 154.398 621.104 154.644 620.471 155.136C619.838 155.628 619.362 156.304 619.041 157.164C618.721 158.015 618.561 158.984 618.561 160.07C618.561 161.171 618.721 162.136 619.041 162.964C619.37 163.785 619.85 164.425 620.483 164.886C621.123 165.339 621.909 165.566 622.838 165.566ZM642.792 169.503C641.034 169.503 639.51 169.117 638.221 168.343C636.932 167.57 635.932 166.488 635.221 165.097C634.518 163.707 634.167 162.082 634.167 160.222C634.167 158.363 634.518 156.734 635.221 155.335C635.932 153.937 636.932 152.851 638.221 152.078C639.51 151.304 641.034 150.917 642.792 150.917C644.549 150.917 646.073 151.304 647.362 152.078C648.651 152.851 649.647 153.937 650.35 155.335C651.061 156.734 651.417 158.363 651.417 160.222C651.417 162.082 651.061 163.707 650.35 165.097C649.647 166.488 648.651 167.57 647.362 168.343C646.073 169.117 644.549 169.503 642.792 169.503ZM642.815 166.105C643.768 166.105 644.565 165.843 645.206 165.32C645.846 164.789 646.323 164.078 646.635 163.187C646.956 162.296 647.116 161.304 647.116 160.21C647.116 159.109 646.956 158.113 646.635 157.222C646.323 156.324 645.846 155.609 645.206 155.078C644.565 154.546 643.768 154.281 642.815 154.281C641.838 154.281 641.026 154.546 640.378 155.078C639.737 155.609 639.256 156.324 638.936 157.222C638.624 158.113 638.467 159.109 638.467 160.21C638.467 161.304 638.624 162.296 638.936 163.187C639.256 164.078 639.737 164.789 640.378 165.32C641.026 165.843 641.838 166.105 642.815 166.105ZM654.357 169.152V151.152H658.599V169.152H654.357ZM656.49 148.597C655.818 148.597 655.24 148.375 654.756 147.929C654.271 147.476 654.029 146.933 654.029 146.3C654.029 145.66 654.271 145.117 654.756 144.671C655.24 144.218 655.818 143.992 656.49 143.992C657.17 143.992 657.748 144.218 658.224 144.671C658.709 145.117 658.951 145.66 658.951 146.3C658.951 146.933 658.709 147.476 658.224 147.929C657.748 148.375 657.17 148.597 656.49 148.597ZM666.544 158.605V169.152H662.302V151.152H666.356V154.21H666.567C666.981 153.203 667.641 152.402 668.548 151.808C669.462 151.214 670.591 150.917 671.934 150.917C673.177 150.917 674.259 151.183 675.181 151.714C676.11 152.246 676.829 153.015 677.337 154.023C677.852 155.031 678.106 156.253 678.099 157.691V169.152H673.856V158.347C673.856 157.144 673.544 156.203 672.919 155.523C672.302 154.843 671.446 154.503 670.352 154.503C669.61 154.503 668.95 154.667 668.372 154.996C667.802 155.316 667.352 155.781 667.024 156.39C666.704 157 666.544 157.738 666.544 158.605ZM689.579 176.277C688.056 176.277 686.747 176.07 685.653 175.656C684.56 175.25 683.681 174.703 683.017 174.015C682.353 173.328 681.892 172.566 681.634 171.73L685.454 170.804C685.626 171.156 685.876 171.503 686.204 171.847C686.532 172.199 686.974 172.488 687.528 172.714C688.091 172.949 688.798 173.066 689.649 173.066C690.853 173.066 691.849 172.773 692.638 172.187C693.427 171.609 693.821 170.656 693.821 169.328V165.917H693.61C693.392 166.355 693.071 166.804 692.649 167.265C692.235 167.726 691.685 168.113 690.997 168.425C690.317 168.738 689.462 168.894 688.431 168.894C687.048 168.894 685.794 168.57 684.669 167.921C683.552 167.265 682.661 166.289 681.997 164.992C681.341 163.687 681.013 162.054 681.013 160.093C681.013 158.117 681.341 156.449 681.997 155.089C682.661 153.722 683.556 152.687 684.681 151.984C685.806 151.273 687.06 150.917 688.442 150.917C689.497 150.917 690.364 151.097 691.044 151.457C691.732 151.808 692.278 152.234 692.685 152.734C693.091 153.226 693.399 153.691 693.61 154.128H693.845V151.152H698.028V169.445C698.028 170.984 697.661 172.257 696.927 173.265C696.192 174.273 695.189 175.027 693.915 175.527C692.642 176.027 691.196 176.277 689.579 176.277ZM689.614 165.566C690.513 165.566 691.278 165.347 691.911 164.91C692.544 164.472 693.024 163.843 693.353 163.023C693.681 162.203 693.845 161.218 693.845 160.07C693.845 158.937 693.681 157.945 693.353 157.093C693.032 156.242 692.556 155.582 691.923 155.113C691.298 154.636 690.528 154.398 689.614 154.398C688.669 154.398 687.88 154.644 687.247 155.136C686.614 155.628 686.138 156.304 685.817 157.164C685.497 158.015 685.337 158.984 685.337 160.07C685.337 161.171 685.497 162.136 685.817 162.964C686.146 163.785 686.626 164.425 687.259 164.886C687.899 165.339 688.685 165.566 689.614 165.566ZM704.329 169.41C703.618 169.41 703.009 169.16 702.501 168.66C701.993 168.16 701.743 167.55 701.751 166.832C701.743 166.128 701.993 165.527 702.501 165.027C703.009 164.527 703.618 164.277 704.329 164.277C705.017 164.277 705.615 164.527 706.122 165.027C706.638 165.527 706.9 166.128 706.907 166.832C706.9 167.308 706.775 167.742 706.532 168.132C706.298 168.523 705.986 168.835 705.595 169.07C705.212 169.296 704.79 169.41 704.329 169.41ZM711.421 145.152V147.542C711.421 148.23 711.288 148.945 711.023 149.687C710.765 150.421 710.41 151.125 709.956 151.796C709.503 152.46 708.988 153.031 708.41 153.507L706.441 152.23C706.87 151.582 707.245 150.882 707.566 150.132C707.886 149.375 708.046 148.519 708.046 147.566V145.152H711.421ZM717.339 145.152V147.542C717.339 148.23 717.206 148.945 716.941 149.687C716.683 150.421 716.328 151.125 715.874 151.796C715.421 152.46 714.91 153.031 714.339 153.507L712.37 152.23C712.792 151.582 713.163 150.882 713.484 150.132C713.804 149.375 713.964 148.519 713.964 147.566V145.152H717.339Z" fill="#111217"/>
<path d="M356.917 223.606H358.679V234.004C358.679 234.932 358.508 235.721 358.167 236.369C357.827 237.018 357.346 237.51 356.726 237.846C356.105 238.183 355.374 238.351 354.531 238.351C353.736 238.351 353.028 238.206 352.407 237.917C351.787 237.624 351.3 237.207 350.944 236.667C350.589 236.128 350.412 235.486 350.412 234.743H352.145C352.145 235.155 352.247 235.515 352.45 235.822C352.658 236.125 352.943 236.362 353.302 236.533C353.662 236.703 354.072 236.788 354.531 236.788C355.038 236.788 355.469 236.682 355.824 236.469C356.179 236.256 356.449 235.943 356.633 235.531C356.823 235.114 356.917 234.605 356.917 234.004V223.606ZM366.555 238.379C365.504 238.379 364.597 238.147 363.835 237.683C363.077 237.214 362.493 236.561 362.081 235.723C361.674 234.88 361.47 233.9 361.47 232.783C361.47 231.665 361.674 230.68 362.081 229.828C362.493 228.971 363.066 228.303 363.8 227.825C364.538 227.342 365.4 227.101 366.385 227.101C366.953 227.101 367.514 227.195 368.068 227.385C368.622 227.574 369.126 227.882 369.581 228.308C370.035 228.73 370.398 229.288 370.667 229.984C370.937 230.68 371.072 231.537 371.072 232.555V233.265H362.663V231.817H369.368C369.368 231.201 369.245 230.652 368.998 230.169C368.757 229.686 368.411 229.305 367.961 229.025C367.516 228.746 366.991 228.606 366.385 228.606C365.717 228.606 365.14 228.772 364.652 229.104C364.169 229.43 363.797 229.856 363.537 230.382C363.276 230.908 363.146 231.471 363.146 232.072V233.038C363.146 233.862 363.288 234.56 363.572 235.133C363.861 235.702 364.261 236.135 364.773 236.433C365.284 236.727 365.878 236.873 366.555 236.873C366.996 236.873 367.393 236.812 367.748 236.689C368.108 236.561 368.418 236.372 368.679 236.121C368.939 235.865 369.14 235.548 369.282 235.169L370.902 235.623C370.731 236.173 370.445 236.656 370.042 237.072C369.64 237.484 369.143 237.806 368.551 238.038C367.959 238.265 367.294 238.379 366.555 238.379ZM375.298 231.589V238.152H373.622V227.243H375.241V228.947H375.383C375.639 228.393 376.027 227.948 376.548 227.612C377.069 227.271 377.741 227.101 378.565 227.101C379.304 227.101 379.95 227.252 380.504 227.555C381.058 227.854 381.489 228.308 381.797 228.919C382.104 229.525 382.258 230.292 382.258 231.22V238.152H380.582V231.334C380.582 230.477 380.36 229.809 379.915 229.331C379.47 228.848 378.859 228.606 378.082 228.606C377.547 228.606 377.069 228.722 376.648 228.954C376.231 229.186 375.902 229.525 375.66 229.97C375.419 230.415 375.298 230.955 375.298 231.589ZM386.997 231.589V238.152H385.321V227.243H386.941V228.947H387.083C387.338 228.393 387.727 227.948 388.247 227.612C388.768 227.271 389.441 227.101 390.264 227.101C391.003 227.101 391.649 227.252 392.203 227.555C392.757 227.854 393.188 228.308 393.496 228.919C393.804 229.525 393.958 230.292 393.958 231.22V238.152H392.281V231.334C392.281 230.477 392.059 229.809 391.614 229.331C391.169 228.848 390.558 228.606 389.781 228.606C389.246 228.606 388.768 228.722 388.347 228.954C387.93 229.186 387.601 229.525 387.36 229.97C387.118 230.415 386.997 230.955 386.997 231.589ZM397.709 242.243C397.425 242.243 397.172 242.219 396.949 242.172C396.727 242.129 396.573 242.087 396.488 242.044L396.914 240.567C397.321 240.671 397.681 240.709 397.993 240.68C398.306 240.652 398.583 240.512 398.824 240.261C399.071 240.015 399.296 239.615 399.499 239.061L399.812 238.209L395.778 227.243H397.596L400.607 235.936H400.721L403.732 227.243H405.55L400.92 239.743C400.711 240.306 400.453 240.773 400.145 241.142C399.838 241.516 399.48 241.793 399.073 241.973C398.671 242.153 398.216 242.243 397.709 242.243ZM416.257 238.152L412.28 223.606H414.069L417.109 235.453H417.251L420.348 223.606H422.336L425.433 235.453H425.575L428.615 223.606H430.405L426.427 238.152H424.609L421.399 226.561H421.285L418.075 238.152H416.257ZM432.372 238.152V227.243H434.048V238.152H432.372ZM433.224 225.425C432.898 225.425 432.616 225.313 432.379 225.091C432.147 224.868 432.031 224.601 432.031 224.288C432.031 223.976 432.147 223.708 432.379 223.486C432.616 223.263 432.898 223.152 433.224 223.152C433.551 223.152 433.83 223.263 434.062 223.486C434.299 223.708 434.417 223.976 434.417 224.288C434.417 224.601 434.299 224.868 434.062 225.091C433.83 225.313 433.551 225.425 433.224 225.425ZM438.794 223.606V238.152H437.118V223.606H438.794ZM449.591 229.686L448.086 230.112C447.991 229.861 447.851 229.617 447.667 229.381C447.487 229.139 447.241 228.94 446.928 228.784C446.616 228.628 446.215 228.55 445.728 228.55C445.06 228.55 444.504 228.703 444.059 229.011C443.618 229.314 443.398 229.7 443.398 230.169C443.398 230.586 443.55 230.915 443.853 231.156C444.156 231.398 444.629 231.599 445.273 231.76L446.893 232.158C447.868 232.394 448.595 232.756 449.073 233.244C449.551 233.727 449.79 234.35 449.79 235.112C449.79 235.737 449.61 236.296 449.251 236.788C448.895 237.281 448.398 237.669 447.759 237.953C447.12 238.237 446.376 238.379 445.529 238.379C444.416 238.379 443.495 238.138 442.766 237.655C442.037 237.172 441.575 236.466 441.381 235.538L442.972 235.14C443.124 235.728 443.41 236.168 443.831 236.462C444.258 236.755 444.814 236.902 445.501 236.902C446.282 236.902 446.902 236.736 447.361 236.405C447.825 236.069 448.057 235.666 448.057 235.197C448.057 234.819 447.925 234.501 447.66 234.246C447.394 233.985 446.987 233.791 446.438 233.663L444.62 233.237C443.621 233 442.887 232.633 442.418 232.136C441.954 231.634 441.722 231.007 441.722 230.254C441.722 229.639 441.895 229.094 442.241 228.621C442.591 228.147 443.067 227.775 443.668 227.506C444.274 227.236 444.961 227.101 445.728 227.101C446.807 227.101 447.655 227.337 448.27 227.811C448.891 228.284 449.331 228.909 449.591 229.686ZM456.745 238.379C455.76 238.379 454.896 238.145 454.153 237.676C453.414 237.207 452.837 236.551 452.42 235.709C452.008 234.866 451.802 233.881 451.802 232.754C451.802 231.618 452.008 230.626 452.42 229.778C452.837 228.931 453.414 228.273 454.153 227.804C454.896 227.335 455.76 227.101 456.745 227.101C457.73 227.101 458.592 227.335 459.33 227.804C460.074 228.273 460.651 228.931 461.063 229.778C461.48 230.626 461.688 231.618 461.688 232.754C461.688 233.881 461.48 234.866 461.063 235.709C460.651 236.551 460.074 237.207 459.33 237.676C458.592 238.145 457.73 238.379 456.745 238.379ZM456.745 236.873C457.493 236.873 458.109 236.682 458.592 236.298C459.075 235.915 459.432 235.41 459.664 234.785C459.896 234.16 460.012 233.483 460.012 232.754C460.012 232.025 459.896 231.346 459.664 230.716C459.432 230.086 459.075 229.577 458.592 229.189C458.109 228.801 457.493 228.606 456.745 228.606C455.997 228.606 455.382 228.801 454.899 229.189C454.416 229.577 454.058 230.086 453.826 230.716C453.594 231.346 453.478 232.025 453.478 232.754C453.478 233.483 453.594 234.16 453.826 234.785C454.058 235.41 454.416 235.915 454.899 236.298C455.382 236.682 455.997 236.873 456.745 236.873ZM465.923 231.589V238.152H464.247V227.243H465.866V228.947H466.008C466.264 228.393 466.652 227.948 467.173 227.612C467.694 227.271 468.366 227.101 469.19 227.101C469.929 227.101 470.575 227.252 471.129 227.555C471.683 227.854 472.114 228.308 472.422 228.919C472.729 229.525 472.883 230.292 472.883 231.22V238.152H471.207V231.334C471.207 230.477 470.985 229.809 470.54 229.331C470.095 228.848 469.484 228.606 468.707 228.606C468.172 228.606 467.694 228.722 467.273 228.954C466.856 229.186 466.527 229.525 466.285 229.97C466.044 230.415 465.923 230.955 465.923 231.589Z" fill="#111217"/>
<path d="M305.027 271.152H303.55L307.822 259.515H309.277L313.55 271.152H312.072L308.595 261.356H308.504L305.027 271.152ZM305.572 266.606H311.527V267.856H305.572V266.606ZM318.726 271.334C317.908 271.334 317.203 271.14 316.612 270.754C316.021 270.368 315.567 269.836 315.249 269.158C314.93 268.48 314.771 267.705 314.771 266.834C314.771 265.947 314.934 265.165 315.26 264.487C315.589 263.805 316.048 263.273 316.635 262.89C317.226 262.504 317.915 262.311 318.703 262.311C319.317 262.311 319.87 262.425 320.362 262.652C320.855 262.879 321.258 263.197 321.572 263.606C321.887 264.015 322.082 264.493 322.158 265.038H320.817C320.714 264.64 320.487 264.288 320.135 263.981C319.786 263.671 319.317 263.515 318.726 263.515C318.203 263.515 317.745 263.652 317.351 263.925C316.961 264.194 316.656 264.574 316.436 265.067C316.22 265.555 316.112 266.129 316.112 266.788C316.112 267.462 316.218 268.05 316.43 268.55C316.646 269.05 316.949 269.438 317.339 269.714C317.733 269.991 318.196 270.129 318.726 270.129C319.074 270.129 319.391 270.069 319.675 269.947C319.959 269.826 320.199 269.652 320.396 269.425C320.593 269.197 320.733 268.925 320.817 268.606H322.158C322.082 269.122 321.894 269.586 321.595 269.998C321.3 270.408 320.908 270.733 320.419 270.976C319.934 271.214 319.37 271.334 318.726 271.334ZM327.663 271.334C326.845 271.334 326.141 271.14 325.55 270.754C324.959 270.368 324.504 269.836 324.186 269.158C323.868 268.48 323.709 267.705 323.709 266.834C323.709 265.947 323.872 265.165 324.197 264.487C324.527 263.805 324.985 263.273 325.572 262.89C326.163 262.504 326.853 262.311 327.641 262.311C328.254 262.311 328.807 262.425 329.3 262.652C329.792 262.879 330.196 263.197 330.51 263.606C330.824 264.015 331.019 264.493 331.095 265.038H329.754C329.652 264.64 329.425 264.288 329.072 263.981C328.724 263.671 328.254 263.515 327.663 263.515C327.141 263.515 326.682 263.652 326.288 263.925C325.898 264.194 325.593 264.574 325.374 265.067C325.158 265.555 325.05 266.129 325.05 266.788C325.05 267.462 325.156 268.05 325.368 268.55C325.584 269.05 325.887 269.438 326.277 269.714C326.671 269.991 327.133 270.129 327.663 270.129C328.012 270.129 328.328 270.069 328.612 269.947C328.896 269.826 329.137 269.652 329.334 269.425C329.531 269.197 329.671 268.925 329.754 268.606H331.095C331.019 269.122 330.832 269.586 330.533 269.998C330.237 270.408 329.845 270.733 329.357 270.976C328.872 271.214 328.307 271.334 327.663 271.334ZM336.601 271.334C335.813 271.334 335.122 271.146 334.527 270.771C333.936 270.396 333.474 269.872 333.141 269.197C332.811 268.523 332.646 267.735 332.646 266.834C332.646 265.925 332.811 265.131 333.141 264.453C333.474 263.775 333.936 263.248 334.527 262.873C335.122 262.498 335.813 262.311 336.601 262.311C337.389 262.311 338.078 262.498 338.669 262.873C339.264 263.248 339.726 263.775 340.055 264.453C340.389 265.131 340.555 265.925 340.555 266.834C340.555 267.735 340.389 268.523 340.055 269.197C339.726 269.872 339.264 270.396 338.669 270.771C338.078 271.146 337.389 271.334 336.601 271.334ZM336.601 270.129C337.199 270.129 337.692 269.976 338.078 269.669C338.464 269.362 338.75 268.959 338.936 268.459C339.122 267.959 339.214 267.417 339.214 266.834C339.214 266.25 339.122 265.707 338.936 265.203C338.75 264.699 338.464 264.292 338.078 263.981C337.692 263.671 337.199 263.515 336.601 263.515C336.002 263.515 335.51 263.671 335.124 263.981C334.737 264.292 334.451 264.699 334.266 265.203C334.08 265.707 333.987 266.25 333.987 266.834C333.987 267.417 334.08 267.959 334.266 268.459C334.451 268.959 334.737 269.362 335.124 269.669C335.51 269.976 336.002 270.129 336.601 270.129ZM348.102 267.584V262.425H349.443V271.152H348.102V269.675H348.011C347.807 270.118 347.489 270.495 347.057 270.805C346.625 271.112 346.08 271.265 345.42 271.265C344.875 271.265 344.39 271.146 343.966 270.908C343.542 270.665 343.208 270.301 342.966 269.817C342.723 269.328 342.602 268.712 342.602 267.97V262.425H343.943V267.879C343.943 268.515 344.121 269.023 344.477 269.402C344.837 269.781 345.295 269.97 345.852 269.97C346.186 269.97 346.525 269.885 346.869 269.714C347.218 269.544 347.509 269.283 347.744 268.93C347.983 268.578 348.102 268.129 348.102 267.584ZM353.24 265.902V271.152H351.899V262.425H353.195V263.788H353.308C353.513 263.345 353.823 262.989 354.24 262.72C354.657 262.447 355.195 262.311 355.854 262.311C356.445 262.311 356.962 262.432 357.405 262.675C357.848 262.913 358.193 263.277 358.439 263.765C358.685 264.25 358.808 264.864 358.808 265.606V271.152H357.467V265.697C357.467 265.012 357.289 264.478 356.933 264.095C356.577 263.709 356.089 263.515 355.467 263.515C355.039 263.515 354.657 263.608 354.32 263.794C353.986 263.98 353.723 264.25 353.53 264.606C353.337 264.962 353.24 265.394 353.24 265.902ZM365.054 262.425V263.561H360.531V262.425H365.054ZM361.849 260.334H363.19V268.652C363.19 269.031 363.245 269.315 363.355 269.504C363.469 269.69 363.613 269.815 363.787 269.879C363.965 269.94 364.152 269.97 364.349 269.97C364.497 269.97 364.618 269.962 364.713 269.947C364.808 269.928 364.884 269.913 364.94 269.902L365.213 271.106C365.122 271.14 364.995 271.175 364.832 271.209C364.67 271.247 364.463 271.265 364.213 271.265C363.834 271.265 363.463 271.184 363.099 271.021C362.74 270.858 362.44 270.61 362.202 270.277C361.967 269.944 361.849 269.523 361.849 269.015V260.334ZM369.639 271.356C369.086 271.356 368.584 271.252 368.134 271.044C367.683 270.832 367.325 270.527 367.06 270.129C366.795 269.728 366.662 269.243 366.662 268.675C366.662 268.175 366.76 267.769 366.957 267.459C367.154 267.144 367.418 266.898 367.747 266.72C368.077 266.542 368.44 266.409 368.838 266.322C369.24 266.231 369.643 266.159 370.048 266.106C370.579 266.038 371.009 265.987 371.338 265.953C371.671 265.915 371.914 265.853 372.065 265.765C372.221 265.678 372.298 265.527 372.298 265.311V265.265C372.298 264.705 372.145 264.269 371.838 263.959C371.535 263.648 371.075 263.493 370.457 263.493C369.817 263.493 369.315 263.633 368.952 263.913C368.588 264.194 368.332 264.493 368.185 264.811L366.912 264.356C367.139 263.826 367.442 263.413 367.821 263.118C368.204 262.819 368.62 262.61 369.071 262.493C369.526 262.372 369.973 262.311 370.412 262.311C370.692 262.311 371.014 262.345 371.378 262.413C371.745 262.478 372.099 262.612 372.44 262.817C372.785 263.021 373.071 263.33 373.298 263.743C373.526 264.156 373.639 264.709 373.639 265.402V271.152H372.298V269.97H372.23C372.139 270.159 371.988 270.362 371.776 270.578C371.563 270.794 371.281 270.978 370.929 271.129C370.577 271.281 370.147 271.356 369.639 271.356ZM369.844 270.152C370.374 270.152 370.821 270.048 371.185 269.839C371.552 269.631 371.829 269.362 372.014 269.033C372.204 268.703 372.298 268.356 372.298 267.993V266.765C372.241 266.834 372.116 266.896 371.923 266.953C371.734 267.006 371.514 267.053 371.264 267.095C371.018 267.133 370.777 267.167 370.543 267.197C370.312 267.224 370.124 267.247 369.98 267.265C369.632 267.311 369.306 267.385 369.003 267.487C368.704 267.586 368.461 267.735 368.276 267.936C368.094 268.133 368.003 268.402 368.003 268.743C368.003 269.209 368.175 269.561 368.52 269.8C368.868 270.034 369.31 270.152 369.844 270.152ZM377.428 265.902V271.152H376.087V262.425H377.382V263.788H377.496C377.7 263.345 378.011 262.989 378.428 262.72C378.844 262.447 379.382 262.311 380.041 262.311C380.632 262.311 381.149 262.432 381.592 262.675C382.036 262.913 382.38 263.277 382.626 263.765C382.873 264.25 382.996 264.864 382.996 265.606V271.152H381.655V265.697C381.655 265.012 381.477 264.478 381.121 264.095C380.765 263.709 380.276 263.515 379.655 263.515C379.227 263.515 378.844 263.608 378.507 263.794C378.174 263.98 377.911 264.25 377.717 264.606C377.524 264.962 377.428 265.394 377.428 265.902ZM389.241 262.425V263.561H384.719V262.425H389.241ZM386.037 260.334H387.378V268.652C387.378 269.031 387.433 269.315 387.543 269.504C387.656 269.69 387.8 269.815 387.974 269.879C388.152 269.94 388.34 269.97 388.537 269.97C388.685 269.97 388.806 269.962 388.901 269.947C388.995 269.928 389.071 269.913 389.128 269.902L389.401 271.106C389.31 271.14 389.183 271.175 389.02 271.209C388.857 271.247 388.651 271.265 388.401 271.265C388.022 271.265 387.651 271.184 387.287 271.021C386.927 270.858 386.628 270.61 386.389 270.277C386.154 269.944 386.037 269.523 386.037 269.015V260.334ZM398.327 271.356C397.774 271.356 397.272 271.252 396.821 271.044C396.37 270.832 396.012 270.527 395.747 270.129C395.482 269.728 395.349 269.243 395.349 268.675C395.349 268.175 395.448 267.769 395.645 267.459C395.842 267.144 396.105 266.898 396.435 266.72C396.764 266.542 397.128 266.409 397.526 266.322C397.927 266.231 398.33 266.159 398.736 266.106C399.266 266.038 399.696 265.987 400.026 265.953C400.359 265.915 400.601 265.853 400.753 265.765C400.908 265.678 400.986 265.527 400.986 265.311V265.265C400.986 264.705 400.832 264.269 400.526 263.959C400.223 263.648 399.762 263.493 399.145 263.493C398.505 263.493 398.003 263.633 397.639 263.913C397.276 264.194 397.02 264.493 396.872 264.811L395.599 264.356C395.827 263.826 396.13 263.413 396.509 263.118C396.891 262.819 397.308 262.61 397.759 262.493C398.213 262.372 398.66 262.311 399.099 262.311C399.38 262.311 399.702 262.345 400.065 262.413C400.433 262.478 400.787 262.612 401.128 262.817C401.473 263.021 401.759 263.33 401.986 263.743C402.213 264.156 402.327 264.709 402.327 265.402V271.152H400.986V269.97H400.918C400.827 270.159 400.675 270.362 400.463 270.578C400.251 270.794 399.969 270.978 399.616 271.129C399.264 271.281 398.834 271.356 398.327 271.356ZM398.531 270.152C399.062 270.152 399.509 270.048 399.872 269.839C400.24 269.631 400.516 269.362 400.702 269.033C400.891 268.703 400.986 268.356 400.986 267.993V266.765C400.929 266.834 400.804 266.896 400.611 266.953C400.421 267.006 400.202 267.053 399.952 267.095C399.705 267.133 399.465 267.167 399.23 267.197C398.999 267.224 398.812 267.247 398.668 267.265C398.319 267.311 397.993 267.385 397.69 267.487C397.391 267.586 397.149 267.735 396.963 267.936C396.781 268.133 396.69 268.402 396.69 268.743C396.69 269.209 396.863 269.561 397.207 269.8C397.556 270.034 397.997 270.152 398.531 270.152ZM408.57 262.425V263.561H404.047V262.425H408.57ZM405.365 260.334H406.706V268.652C406.706 269.031 406.761 269.315 406.871 269.504C406.984 269.69 407.128 269.815 407.303 269.879C407.481 269.94 407.668 269.97 407.865 269.97C408.013 269.97 408.134 269.962 408.229 269.947C408.323 269.928 408.399 269.913 408.456 269.902L408.729 271.106C408.638 271.14 408.511 271.175 408.348 271.209C408.185 271.247 407.979 271.265 407.729 271.265C407.35 271.265 406.979 271.184 406.615 271.021C406.255 270.858 405.956 270.61 405.717 270.277C405.482 269.944 405.365 269.523 405.365 269.015V260.334ZM424.496 259.515V271.152H423.132L416.791 262.015H416.678V271.152H415.268V259.515H416.632L422.996 268.675H423.109V259.515H424.496ZM430.793 271.334C429.952 271.334 429.226 271.148 428.616 270.777C428.01 270.402 427.543 269.879 427.213 269.209C426.887 268.534 426.724 267.75 426.724 266.856C426.724 265.962 426.887 265.175 427.213 264.493C427.543 263.807 428.001 263.273 428.588 262.89C429.179 262.504 429.868 262.311 430.656 262.311C431.111 262.311 431.56 262.387 432.003 262.538C432.446 262.69 432.849 262.936 433.213 263.277C433.577 263.614 433.866 264.061 434.082 264.618C434.298 265.175 434.406 265.86 434.406 266.675V267.243H427.679V266.084H433.043C433.043 265.591 432.944 265.152 432.747 264.765C432.554 264.379 432.277 264.074 431.918 263.851C431.562 263.627 431.141 263.515 430.656 263.515C430.122 263.515 429.66 263.648 429.27 263.913C428.884 264.175 428.586 264.515 428.378 264.936C428.17 265.356 428.065 265.807 428.065 266.288V267.061C428.065 267.72 428.179 268.279 428.406 268.737C428.637 269.192 428.957 269.538 429.366 269.777C429.776 270.012 430.251 270.129 430.793 270.129C431.145 270.129 431.463 270.08 431.747 269.981C432.035 269.879 432.283 269.728 432.491 269.527C432.7 269.322 432.861 269.069 432.974 268.765L434.27 269.129C434.134 269.569 433.904 269.955 433.582 270.288C433.26 270.618 432.863 270.875 432.389 271.061C431.916 271.243 431.384 271.334 430.793 271.334ZM442.628 264.379L441.423 264.72C441.348 264.519 441.236 264.324 441.088 264.135C440.944 263.942 440.747 263.783 440.497 263.658C440.247 263.533 439.927 263.47 439.537 263.47C439.003 263.47 438.558 263.593 438.202 263.839C437.849 264.082 437.673 264.39 437.673 264.765C437.673 265.099 437.795 265.362 438.037 265.555C438.279 265.748 438.658 265.909 439.173 266.038L440.469 266.356C441.249 266.546 441.83 266.836 442.213 267.226C442.596 267.612 442.787 268.11 442.787 268.72C442.787 269.22 442.643 269.667 442.355 270.061C442.071 270.455 441.673 270.765 441.162 270.993C440.651 271.22 440.056 271.334 439.378 271.334C438.488 271.334 437.751 271.14 437.168 270.754C436.584 270.368 436.215 269.803 436.06 269.061L437.332 268.743C437.454 269.212 437.683 269.565 438.02 269.8C438.361 270.034 438.806 270.152 439.355 270.152C439.98 270.152 440.476 270.019 440.844 269.754C441.215 269.485 441.401 269.163 441.401 268.788C441.401 268.485 441.295 268.231 441.082 268.027C440.87 267.819 440.545 267.663 440.105 267.561L438.651 267.22C437.851 267.031 437.264 266.737 436.889 266.339C436.518 265.938 436.332 265.436 436.332 264.834C436.332 264.341 436.471 263.906 436.747 263.527C437.027 263.148 437.408 262.851 437.889 262.635C438.374 262.419 438.923 262.311 439.537 262.311C440.401 262.311 441.079 262.5 441.571 262.879C442.067 263.258 442.42 263.758 442.628 264.379ZM448.601 262.425V263.561H444.078V262.425H448.601ZM445.396 260.334H446.737V268.652C446.737 269.031 446.792 269.315 446.902 269.504C447.016 269.69 447.16 269.815 447.334 269.879C447.512 269.94 447.699 269.97 447.896 269.97C448.044 269.97 448.165 269.962 448.26 269.947C448.355 269.928 448.43 269.913 448.487 269.902L448.76 271.106C448.669 271.14 448.542 271.175 448.379 271.209C448.216 271.247 448.01 271.265 447.76 271.265C447.381 271.265 447.01 271.184 446.646 271.021C446.286 270.858 445.987 270.61 445.749 270.277C445.514 269.944 445.396 269.523 445.396 269.015V260.334ZM452.146 259.515V271.152H450.805V259.515H452.146ZM458.261 271.334C457.42 271.334 456.695 271.148 456.085 270.777C455.479 270.402 455.011 269.879 454.682 269.209C454.356 268.534 454.193 267.75 454.193 266.856C454.193 265.962 454.356 265.175 454.682 264.493C455.011 263.807 455.47 263.273 456.057 262.89C456.648 262.504 457.337 262.311 458.125 262.311C458.58 262.311 459.028 262.387 459.472 262.538C459.915 262.69 460.318 262.936 460.682 263.277C461.045 263.614 461.335 264.061 461.551 264.618C461.767 265.175 461.875 265.86 461.875 266.675V267.243H455.148V266.084H460.511C460.511 265.591 460.413 265.152 460.216 264.765C460.023 264.379 459.746 264.074 459.386 263.851C459.03 263.627 458.61 263.515 458.125 263.515C457.591 263.515 457.129 263.648 456.739 263.913C456.352 264.175 456.055 264.515 455.847 264.936C455.638 265.356 455.534 265.807 455.534 266.288V267.061C455.534 267.72 455.648 268.279 455.875 268.737C456.106 269.192 456.426 269.538 456.835 269.777C457.244 270.012 457.72 270.129 458.261 270.129C458.614 270.129 458.932 270.08 459.216 269.981C459.504 269.879 459.752 269.728 459.96 269.527C460.169 269.322 460.33 269.069 460.443 268.765L461.739 269.129C461.602 269.569 461.373 269.955 461.051 270.288C460.729 270.618 460.331 270.875 459.858 271.061C459.384 271.243 458.852 271.334 458.261 271.334ZM477.824 259.515V271.152H476.46L470.119 262.015H470.006V271.152H468.597V259.515H469.96L476.324 268.675H476.438V259.515H477.824ZM480.462 271.152V262.425H481.803V271.152H480.462ZM481.143 260.97C480.882 260.97 480.657 260.881 480.467 260.703C480.282 260.525 480.189 260.311 480.189 260.061C480.189 259.811 480.282 259.597 480.467 259.419C480.657 259.241 480.882 259.152 481.143 259.152C481.405 259.152 481.628 259.241 481.814 259.419C482.003 259.597 482.098 259.811 482.098 260.061C482.098 260.311 482.003 260.525 481.814 260.703C481.628 260.881 481.405 260.97 481.143 260.97ZM487.781 274.606C487.134 274.606 486.577 274.523 486.111 274.356C485.645 274.194 485.257 273.978 484.946 273.709C484.639 273.444 484.395 273.159 484.213 272.856L485.281 272.106C485.402 272.265 485.556 272.447 485.741 272.652C485.927 272.86 486.181 273.04 486.503 273.192C486.829 273.347 487.255 273.425 487.781 273.425C488.486 273.425 489.067 273.254 489.526 272.913C489.984 272.572 490.213 272.038 490.213 271.311V269.538H490.099C490.001 269.697 489.861 269.894 489.679 270.129C489.501 270.36 489.243 270.567 488.906 270.748C488.573 270.926 488.122 271.015 487.554 271.015C486.849 271.015 486.217 270.849 485.656 270.515C485.099 270.182 484.658 269.697 484.332 269.061C484.01 268.425 483.849 267.652 483.849 266.743C483.849 265.849 484.007 265.07 484.321 264.408C484.635 263.741 485.073 263.226 485.634 262.862C486.194 262.495 486.842 262.311 487.577 262.311C488.145 262.311 488.596 262.406 488.929 262.595C489.266 262.781 489.524 262.993 489.702 263.231C489.884 263.466 490.024 263.659 490.122 263.811H490.259V262.425H491.554V271.402C491.554 272.152 491.384 272.762 491.043 273.231C490.705 273.705 490.251 274.051 489.679 274.271C489.111 274.495 488.478 274.606 487.781 274.606ZM487.736 269.811C488.274 269.811 488.728 269.688 489.099 269.442C489.471 269.195 489.753 268.841 489.946 268.379C490.139 267.917 490.236 267.364 490.236 266.72C490.236 266.091 490.141 265.536 489.952 265.055C489.762 264.574 489.482 264.197 489.111 263.925C488.74 263.652 488.281 263.515 487.736 263.515C487.168 263.515 486.694 263.659 486.315 263.947C485.94 264.235 485.658 264.622 485.469 265.106C485.283 265.591 485.19 266.129 485.19 266.72C485.19 267.326 485.285 267.862 485.474 268.328C485.668 268.79 485.952 269.154 486.327 269.419C486.705 269.68 487.175 269.811 487.736 269.811ZM497.668 271.334C496.827 271.334 496.101 271.148 495.491 270.777C494.885 270.402 494.418 269.879 494.088 269.209C493.762 268.534 493.599 267.75 493.599 266.856C493.599 265.962 493.762 265.175 494.088 264.493C494.418 263.807 494.876 263.273 495.463 262.89C496.054 262.504 496.743 262.311 497.531 262.311C497.986 262.311 498.435 262.387 498.878 262.538C499.321 262.69 499.724 262.936 500.088 263.277C500.452 263.614 500.741 264.061 500.957 264.618C501.173 265.175 501.281 265.86 501.281 266.675V267.243H494.554V266.084H499.918C499.918 265.591 499.819 265.152 499.622 264.765C499.429 264.379 499.152 264.074 498.793 263.851C498.437 263.627 498.016 263.515 497.531 263.515C496.997 263.515 496.535 263.648 496.145 263.913C495.759 264.175 495.461 264.515 495.253 264.936C495.045 265.356 494.94 265.807 494.94 266.288V267.061C494.94 267.72 495.054 268.279 495.281 268.737C495.512 269.192 495.832 269.538 496.241 269.777C496.651 270.012 497.126 270.129 497.668 270.129C498.02 270.129 498.338 270.08 498.622 269.981C498.91 269.879 499.158 269.728 499.366 269.527C499.575 269.322 499.736 269.069 499.849 268.765L501.145 269.129C501.009 269.569 500.779 269.955 500.457 270.288C500.135 270.618 499.738 270.875 499.264 271.061C498.791 271.243 498.259 271.334 497.668 271.334ZM503.321 271.152V262.425H504.616V263.743H504.707C504.866 263.311 505.154 262.961 505.571 262.692C505.988 262.423 506.457 262.288 506.98 262.288C507.079 262.288 507.202 262.29 507.349 262.294C507.497 262.298 507.609 262.303 507.685 262.311V263.675C507.639 263.663 507.535 263.646 507.372 263.623C507.213 263.597 507.045 263.584 506.866 263.584C506.442 263.584 506.063 263.673 505.73 263.851C505.401 264.025 505.139 264.267 504.946 264.578C504.757 264.885 504.662 265.235 504.662 265.629V271.152H503.321ZM509.274 271.152V262.425H510.615V271.152H509.274ZM509.956 260.97C509.695 260.97 509.469 260.881 509.28 260.703C509.094 260.525 509.001 260.311 509.001 260.061C509.001 259.811 509.094 259.597 509.28 259.419C509.469 259.241 509.695 259.152 509.956 259.152C510.217 259.152 510.441 259.241 510.626 259.419C510.816 259.597 510.911 259.811 510.911 260.061C510.911 260.311 510.816 260.525 510.626 260.703C510.441 260.881 510.217 260.97 509.956 260.97ZM515.639 271.356C515.086 271.356 514.584 271.252 514.134 271.044C513.683 270.832 513.325 270.527 513.06 270.129C512.795 269.728 512.662 269.243 512.662 268.675C512.662 268.175 512.76 267.769 512.957 267.459C513.154 267.144 513.418 266.898 513.747 266.72C514.077 266.542 514.44 266.409 514.838 266.322C515.24 266.231 515.643 266.159 516.048 266.106C516.579 266.038 517.009 265.987 517.338 265.953C517.671 265.915 517.914 265.853 518.065 265.765C518.221 265.678 518.298 265.527 518.298 265.311V265.265C518.298 264.705 518.145 264.269 517.838 263.959C517.535 263.648 517.075 263.493 516.457 263.493C515.817 263.493 515.315 263.633 514.952 263.913C514.588 264.194 514.332 264.493 514.185 264.811L512.912 264.356C513.139 263.826 513.442 263.413 513.821 263.118C514.204 262.819 514.62 262.61 515.071 262.493C515.526 262.372 515.973 262.311 516.412 262.311C516.692 262.311 517.014 262.345 517.378 262.413C517.745 262.478 518.099 262.612 518.44 262.817C518.785 263.021 519.071 263.33 519.298 263.743C519.526 264.156 519.639 264.709 519.639 265.402V271.152H518.298V269.97H518.23C518.139 270.159 517.988 270.362 517.776 270.578C517.563 270.794 517.281 270.978 516.929 271.129C516.577 271.281 516.147 271.356 515.639 271.356ZM515.844 270.152C516.374 270.152 516.821 270.048 517.185 269.839C517.552 269.631 517.829 269.362 518.014 269.033C518.204 268.703 518.298 268.356 518.298 267.993V266.765C518.241 266.834 518.116 266.896 517.923 266.953C517.734 267.006 517.514 267.053 517.264 267.095C517.018 267.133 516.777 267.167 516.543 267.197C516.312 267.224 516.124 267.247 515.98 267.265C515.632 267.311 515.306 267.385 515.003 267.487C514.704 267.586 514.461 267.735 514.276 267.936C514.094 268.133 514.003 268.402 514.003 268.743C514.003 269.209 514.175 269.561 514.52 269.8C514.868 270.034 515.31 270.152 515.844 270.152Z" fill="#90949E"/>
</g>
<defs>
<filter id="filter0_ddd_4064_3343" x="0" y="0.151855" width="824" height="361" filterUnits="userSpaceOnUse" color-interpolation-filters="sRGB">
<feFlood flood-opacity="0" result="BackgroundImageFix"/>
<feColorMatrix in="SourceAlpha" type="matrix" values="0 0 0 0 0 0 0 0 0 0 0 0 0 0 0 0 0 0 127 0" result="hardAlpha"/>
<feMorphology radius="1" operator="dilate" in="SourceAlpha" result="effect1_dropShadow_4064_3343"/>
<feOffset/>
<feComposite in2="hardAlpha" operator="out"/>
<feColorMatrix type="matrix" values="0 0 0 0 0.0696 0 0 0 0 0.4104 0 0 0 0 0.246816 0 0 0 0.08 0"/>
<feBlend mode="normal" in2="BackgroundImageFix" result="effect1_dropShadow_4064_3343"/>
<feColorMatrix in="SourceAlpha" type="matrix" values="0 0 0 0 0 0 0 0 0 0 0 0 0 0 0 0 0 0 127 0" result="hardAlpha"/>
<feOffset dy="1"/>
<feGaussianBlur stdDeviation="1"/>
<feComposite in2="hardAlpha" operator="out"/>
<feColorMatrix type="matrix" values="0 0 0 0 0.341717 0 0 0 0 0.3625 0 0 0 0 0.338333 0 0 0 0.16 0"/>
<feBlend mode="normal" in2="effect1_dropShadow_4064_3343" result="effect2_dropShadow_4064_3343"/>
<feColorMatrix in="SourceAlpha" type="matrix" values="0 0 0 0 0 0 0 0 0 0 0 0 0 0 0 0 0 0 127 0" result="hardAlpha"/>
<feMorphology radius="12" operator="erode" in="SourceAlpha" result="effect3_dropShadow_4064_3343"/>
<feOffset dy="24"/>
<feGaussianBlur stdDeviation="12"/>
<feComposite in2="hardAlpha" operator="out"/>
<feColorMatrix type="matrix" values="0 0 0 0 0.2116 0 0 0 0 0.29 0 0 0 0 0.21 0 0 0 0.06 0"/>
<feBlend mode="normal" in2="effect2_dropShadow_4064_3343" result="effect3_dropShadow_4064_3343"/>
<feBlend mode="normal" in="SourceGraphic" in2="effect3_dropShadow_4064_3343" result="shape"/>
</filter>
</defs>
</svg>
